<svg width="120" height="120" viewBox="0 0 120 120" fill="none" xmlns="http://www.w3.org/2000/svg">
<g clip-path="url(#clip0_676_2)">
<circle cx="60" cy="60" r="60" fill="#3465FF"/>
<path fill-rule="evenodd" clip-rule="evenodd" d="M77.5195 78.6379C76.4732 80.4549 74.536 81.5748 72.4391 81.5748H57.1236L52.4522 89.7825H75.0262C78.4612 89.7825 81.6353 87.9499 83.3528 84.9751L94.9964 64.8075C96.7139 61.8327 96.7139 58.1676 94.9964 55.1928L83.3528 35.0253C81.6353 32.0504 78.4612 30.2179 75.0262 30.2179H61.5088L56.8375 38.4256H72.4352C74.5581 38.4256 76.5152 39.5732 77.5517 41.426M77.5517 41.426L86.4707 57.369C86.4707 57.369 86.4707 57.369 86.4707 57.369C87.4783 59.1702 87.4646 61.3686 86.4347 63.157L81.7607 60.4654C81.8431 60.3223 81.8442 60.1464 81.7636 60.0024L72.8445 44.0593C72.7616 43.9111 72.6051 43.8192 72.4352 43.8192H47.5618L58.3725 24.8242H75.0262C80.3882 24.8242 85.3429 27.6848 88.0239 32.3285L99.6675 52.496C102.348 57.1396 102.348 62.8607 99.6675 67.5043L88.0239 87.6719C85.3429 92.3155 80.3882 95.1761 75.0262 95.1761H43.1765L53.9873 76.1811H72.4391C72.6069 76.1811 72.7618 76.0915 72.8456 75.9462L81.7607 60.4654L86.4347 63.157L77.5195 78.6379" fill="white"/>
<path d="M38.0173 81.5742H26.0548L18.3188 95.1756H24.7928C28.1565 95.1756 31.2627 93.3745 32.9337 90.4553L38.0173 81.5742Z" fill="white"/>
<path d="M41.1306 76.1809L29.134 76.1809L44.2539 49.6816L57.4435 49.6816C62.8403 49.6816 66.2274 55.5075 63.5574 60.1975L57.7956 70.3182L44.4936 70.3182L41.1306 76.1809Z" fill="white"/>
</g>
<defs>
<clipPath id="clip0_676_2">
<rect width="120" height="120" fill="white"/>
</clipPath>
</defs>
</svg>
