<svg width="593" height="500" viewBox="0 0 593 500" fill="none" xmlns="http://www.w3.org/2000/svg">
<path fill-rule="evenodd" clip-rule="evenodd" d="M420.747 382.46C413.31 395.374 399.542 403.333 384.64 403.333H275.79L242.59 461.667H403.026C427.439 461.667 449.998 448.642 462.205 427.5L544.957 284.166C557.164 263.024 557.164 236.976 544.957 215.834L462.205 72.5003C449.998 51.3577 427.439 38.3333 403.026 38.3333H306.957L273.757 96.6667H384.612C399.7 96.6667 413.609 104.823 420.975 117.991M420.975 117.991L484.364 231.3C484.364 231.3 484.364 231.3 484.364 231.3C491.525 244.101 491.428 259.725 484.108 272.436L450.889 253.306C451.475 252.289 451.482 251.039 450.91 250.015L387.521 136.706C386.932 135.653 385.819 135 384.612 135H207.833L284.667 0H403.026C441.135 0 476.348 20.3307 495.402 53.3338L578.155 196.667C597.209 229.67 597.209 270.33 578.155 303.333L495.402 446.666C476.348 479.669 441.135 500 403.026 500H176.667L253.5 365H384.64C385.832 365 386.933 364.363 387.528 363.33L450.889 253.306L484.108 272.436L420.747 382.46" fill="black"/>
<path d="M140 403.334H54.981L0 500.001H46.0116C69.9177 500.001 91.9937 487.2 103.87 466.453L140 403.334Z" fill="black"/>
<path d="M162.127 364.999L76.8652 364.999L184.325 176.666L278.065 176.666C316.42 176.666 340.493 218.071 321.517 251.404L280.567 323.333L186.028 323.333L162.127 364.999Z" fill="black"/>
</svg>
