<svg width="919" height="293" viewBox="0 0 919 293" fill="none" xmlns="http://www.w3.org/2000/svg">
<path d="M421.47 71.3665H429.507C442.324 71.3665 448.732 65.5359 448.732 53.8747C448.732 43.3691 442.796 38.1163 430.925 38.1163H421.47V71.3665ZM397.202 18.7334H433.761C445.528 18.7334 455.035 22.0427 462.284 28.6612C469.638 35.2798 473.315 43.6843 473.315 53.8747C473.315 65.5359 469.481 74.5708 461.811 80.9792C454.247 87.3876 444.897 90.5918 433.761 90.5918H421.47V124.945H397.202V18.7334Z" fill="black"/>
<path d="M482.057 71.5241C482.057 55.2404 486.732 42.1084 496.082 32.1281C505.537 22.0427 518.092 17 533.745 17C549.503 17 562.058 21.9902 571.408 31.9705C580.757 41.9508 585.432 55.1354 585.432 71.5241C585.432 87.8078 580.705 100.992 571.25 111.078C561.9 121.058 549.398 126.048 533.745 126.048C517.986 126.048 505.432 121.058 496.082 111.078C486.732 101.097 482.057 87.9129 482.057 71.5241ZM514.992 47.8865C510.37 53.6646 508.059 61.5438 508.059 71.5241C508.059 81.5045 510.37 89.4362 514.992 95.3193C519.615 101.097 525.866 103.986 533.745 103.986C541.624 103.986 547.875 101.097 552.497 95.3193C557.12 89.4362 559.431 81.5045 559.431 71.5241C559.431 61.5438 557.12 53.6646 552.497 47.8865C547.875 42.0034 541.624 39.0618 533.745 39.0618C525.866 39.0618 519.615 42.0034 514.992 47.8865Z" fill="black"/>
<path d="M663.331 23.461V46.1531C654.821 41.2154 645.997 38.7466 636.857 38.7466C632.759 38.7466 629.608 39.5871 627.402 41.268C625.3 42.9489 624.25 45.1025 624.25 47.7289C624.25 50.3553 625.563 52.7191 628.19 54.8202C630.816 56.8163 634.756 58.9699 640.008 61.2812C643.265 62.7519 645.944 64.0651 648.045 65.2208C650.251 66.2713 652.72 67.7946 655.452 69.7907C658.288 71.6817 660.494 73.7303 662.07 75.9365C663.751 78.0376 665.169 80.664 666.325 83.8157C667.48 86.9674 668.058 90.3817 668.058 94.0587C668.058 103.619 664.539 111.393 657.5 117.381C650.461 123.264 641.111 126.206 629.45 126.206C616.948 126.206 606.758 124 598.879 119.587V95.1618C608.439 102.095 618.629 105.562 629.45 105.562C633.127 105.562 636.174 104.617 638.59 102.726C641.006 100.73 642.214 98.1559 642.214 95.0042C642.214 93.9536 642.057 92.9556 641.742 92.0101C641.427 91.0646 640.849 90.1716 640.008 89.3311C639.168 88.4907 638.327 87.8078 637.487 87.2825C636.752 86.6522 635.596 85.9693 634.02 85.234C632.549 84.3935 631.289 83.7106 630.238 83.1854C629.188 82.6601 627.612 81.9247 625.511 80.9792C623.515 80.0337 621.886 79.2983 620.625 78.773C613.797 75.6213 608.281 71.7342 604.079 67.1118C599.982 62.4893 597.933 56.3435 597.933 48.6744C597.933 39.5345 601.295 32.1806 608.019 26.6126C614.742 20.9396 624.04 18.1031 635.911 18.1031C646.522 18.1031 655.662 19.889 663.331 23.461Z" fill="black"/>
<path d="M753.732 18.7334V38.2739H727.889V124.945H703.463V38.2739H677.462V18.7334H753.732Z" fill="black"/>
<path d="M397.202 272.759L406.342 166.547H432.974L447.786 204.998C450.308 211.406 452.461 217.289 454.247 222.647C456.033 228.005 457.189 231.787 457.714 233.993L458.502 237.145C460.183 230.211 463.86 219.495 469.533 204.998L484.504 166.547H511.135L522.166 272.759H497.898L493.959 231.629L491.91 200.585C489.179 208.465 485.397 218.813 480.564 231.629L465.593 271.656H451.253L436.44 231.629C434.024 225.116 431.975 219.285 430.295 214.138C428.614 208.99 427.511 205.418 426.985 203.422L426.197 200.585C426.197 208.044 425.725 218.392 424.779 231.629L421.47 272.759H397.202Z" fill="black"/>
<path d="M571.266 231.472H596.795L595.691 227.69C592.645 217.394 590.123 208.622 588.127 201.373C586.236 194.124 585.081 189.449 584.661 187.348L584.03 184.197C583.19 189.975 579.303 204.472 572.369 227.69L571.266 231.472ZM609.086 272.759L602.625 251.012H565.435L558.974 272.759H533.603L569.06 166.547H599.631L635.088 272.759H609.086Z" fill="black"/>
<path d="M719.778 166.547V186.088H693.934V272.759H669.509V186.088H643.507V166.547H719.778Z" fill="black"/>
<path d="M813.217 171.117V194.44C805.337 189.607 796.565 187.191 786.9 187.191C778.391 187.191 771.247 190.185 765.469 196.173C759.691 202.056 756.802 209.988 756.802 219.968C756.802 229.738 759.691 237.513 765.469 243.291C771.247 248.964 778.706 251.8 787.846 251.8C797.721 251.8 806.178 249.279 813.217 244.236V268.031C806.808 272.023 797.563 274.02 785.482 274.02C769.934 274.02 756.907 269.029 746.401 259.049C736 248.964 730.8 235.937 730.8 219.968C730.8 203.79 735.843 190.605 745.928 180.415C756.119 170.224 769.356 165.129 785.639 165.129C797.616 165.129 806.808 167.125 813.217 171.117Z" fill="black"/>
<path d="M894.574 166.547H919V272.759H894.574V230.369H855.651V272.759H831.383V166.547H855.651V209.725H894.574V166.547Z" fill="black"/>
<path fill-rule="evenodd" clip-rule="evenodd" d="M246.63 224.015C242.274 231.579 234.21 236.24 225.481 236.24H161.726L142.28 270.407H236.25C250.55 270.407 263.763 262.779 270.913 250.395L319.382 166.442C326.532 154.058 326.532 138.801 319.382 126.418L270.913 42.4649C263.763 30.0812 250.55 22.4526 236.251 22.4526H179.981L160.535 56.6196H225.465C234.302 56.6196 242.449 61.397 246.764 69.1095M246.764 69.1095L283.891 135.477C283.892 135.477 283.891 135.477 283.891 135.477C288.086 142.975 288.029 152.126 283.742 159.571L264.285 148.367C264.628 147.771 264.632 147.039 264.297 146.439L227.169 80.0714C226.824 79.4544 226.172 79.0722 225.465 79.0722H121.922L166.925 0H236.251C258.571 0 279.197 11.9081 290.357 31.2386L338.827 115.192C349.987 134.522 349.987 158.338 338.827 177.668L290.357 261.621C279.197 280.952 258.571 292.86 236.25 292.86H103.667L148.67 213.788H225.481C226.179 213.788 226.825 213.415 227.173 212.81L264.285 148.367L283.742 159.571L246.63 224.015" fill="#3465FF"/>
<path d="M82.1908 236.24H32.3935L0.190002 292.86H27.1399C41.1422 292.86 54.0726 285.362 61.0287 273.21L82.1908 236.24Z" fill="#3465FF"/>
<path d="M95.1511 213.787L45.2115 213.787L108.153 103.477L163.058 103.477C185.524 103.477 199.624 127.728 188.509 147.252L164.524 189.382L109.15 189.382L95.1511 213.787Z" fill="#3465FF"/>
</svg>
