<svg width="60" height="60" viewBox="0 0 60 60" fill="none" xmlns="http://www.w3.org/2000/svg">
<path d="M29.6721 41.2188C27.7268 41.2188 26.1474 42.7965 26.1474 44.7419C26.1474 46.688 27.7268 48.2659 29.6721 48.2659C31.6175 48.2659 33.1953 46.688 33.1953 44.7419C33.1954 42.7965 31.6176 41.2188 29.6721 41.2188Z" fill="#888888"/>
<path d="M58.5427 47.0153L34.8603 5.99576C33.7936 4.14779 31.8055 3 29.6705 3C27.537 3 25.5508 4.14791 24.4841 5.99576L0.799997 47.0135C-0.266665 48.8614 -0.266665 51.1572 0.799997 53.005C1.86677 54.8529 3.85476 56 5.9882 56H53.3546C55.4879 56 57.476 54.8529 58.5427 53.005C59.6094 51.1572 59.6094 48.8614 58.5427 47.0153ZM53.8333 49.946C53.4913 50.5375 52.8546 50.9041 52.17 50.9041H7.17192C6.48902 50.9041 5.85131 50.5375 5.51114 49.9443C5.1676 49.352 5.16586 48.6177 5.50951 48.0263L28.009 9.05481C28.3501 8.46335 28.9867 8.09582 29.6722 8.09582C30.356 8.09582 30.9919 8.46335 31.3338 9.05574L53.8333 48.0256C54.1752 48.6177 54.1752 49.3537 53.8333 49.946Z" fill="#888888"/>
<path d="M29.6721 17.5293C27.7268 17.5293 26.1474 19.1071 26.1474 21.0533L27.5012 36.9886C27.5012 38.1877 28.4722 39.1588 29.6721 39.1588C30.8704 39.1588 31.8431 38.1877 31.8431 36.9886L33.1953 21.0533C33.1954 19.107 31.6176 17.5293 29.6721 17.5293Z" fill="#888888"/>
</svg>
