<svg width="60" height="60" viewBox="0 0 60 60" fill="none" xmlns="http://www.w3.org/2000/svg">
<path d="M17.2133 11.9329C19.0568 11.9329 20.672 10.438 20.672 8.5934V3.33867C20.672 1.49511 19.0568 0 17.2133 0C15.3687 0 13.7868 1.49499 13.7868 3.33855V8.5934C13.7868 10.4379 15.3687 11.9329 17.2133 11.9329Z" fill="white"/>
<path d="M41.8034 11.9329C43.6469 11.9329 45.262 10.4379 45.262 8.59328V3.33855C45.262 1.49499 43.6469 0 41.8034 0C39.9588 0 38.3768 1.49499 38.3768 3.33855V8.5934C38.3768 10.4379 39.9588 11.9329 41.8034 11.9329Z" fill="white"/>
<path d="M50.1758 4.75781H48.2128V8.59212C48.2128 12.052 45.2783 14.7533 41.8194 14.7533C38.3595 14.7533 35.426 12.052 35.426 8.59212V4.75781H23.6228V8.59212C23.6228 12.052 20.6883 14.7533 17.2294 14.7533C13.7696 14.7533 10.836 12.052 10.836 8.59212V4.75781H8.87294C4.43199 4.75781 1 8.34499 1 12.7861V51.1464C1 55.5874 4.4321 59.9988 8.87294 59.9988H50.1758C54.6168 59.9988 58.0488 55.5874 58.0488 51.1464V12.7861C58.0488 8.34511 54.6167 4.75781 50.1758 4.75781ZM54.1144 49.671C54.1144 53.6054 52.1472 56.0644 48.2128 56.0644H10.836C7.8852 56.0644 4.9344 53.1136 4.9344 49.671V18.6877H54.1144V49.671Z" fill="white"/>
<path d="M16.72 24.5898H12.8196C12.2673 24.5898 11.8196 25.0376 11.8196 25.5898V29.4904C11.8196 30.0427 12.2673 30.4904 12.8196 30.4904H16.72C17.2723 30.4904 17.72 30.0427 17.72 29.4904V25.5898C17.72 25.0376 17.2723 24.5898 16.72 24.5898Z" fill="white"/>
<path d="M16.72 34.4258H12.8196C12.2673 34.4258 11.8196 34.8735 11.8196 35.4258V39.3263C11.8196 39.8786 12.2673 40.3263 12.8196 40.3263H16.72C17.2723 40.3263 17.72 39.8786 17.72 39.3263V35.4258C17.72 34.8735 17.2723 34.4258 16.72 34.4258Z" fill="white"/>
<path d="M16.72 44.2617H12.8196C12.2673 44.2617 11.8196 44.7094 11.8196 45.2617V49.1623C11.8196 49.7146 12.2673 50.1623 12.8196 50.1623H16.72C17.2723 50.1623 17.72 49.7146 17.72 49.1623V45.2617C17.72 44.7094 17.2723 44.2617 16.72 44.2617Z" fill="white"/>
<path d="M26.556 24.5898H22.6556C22.1033 24.5898 21.6556 25.0376 21.6556 25.5898V29.4904C21.6556 30.0427 22.1033 30.4904 22.6556 30.4904H26.556C27.1083 30.4904 27.556 30.0427 27.556 29.4904V25.5898C27.556 25.0376 27.1083 24.5898 26.556 24.5898Z" fill="white"/>
<path d="M26.556 34.4258H22.6556C22.1033 34.4258 21.6556 34.8735 21.6556 35.4258V39.3263C21.6556 39.8786 22.1033 40.3263 22.6556 40.3263H26.556C27.1083 40.3263 27.556 39.8786 27.556 39.3263V35.4258C27.556 34.8735 27.1083 34.4258 26.556 34.4258Z" fill="white"/>
<path d="M26.556 44.2617H22.6556C22.1033 44.2617 21.6556 44.7094 21.6556 45.2617V49.1623C21.6556 49.7146 22.1033 50.1623 22.6556 50.1623H26.556C27.1083 50.1623 27.556 49.7146 27.556 49.1623V45.2617C27.556 44.7094 27.1083 44.2617 26.556 44.2617Z" fill="white"/>
<path d="M36.392 24.5898H32.4916C31.9393 24.5898 31.4916 25.0376 31.4916 25.5898V29.4904C31.4916 30.0427 31.9393 30.4904 32.4916 30.4904H36.392C36.9443 30.4904 37.392 30.0427 37.392 29.4904V25.5898C37.392 25.0376 36.9443 24.5898 36.392 24.5898Z" fill="white"/>
<path d="M36.392 34.4258H32.4916C31.9393 34.4258 31.4916 34.8735 31.4916 35.4258V39.3263C31.4916 39.8786 31.9393 40.3263 32.4916 40.3263H36.392C36.9443 40.3263 37.392 39.8786 37.392 39.3263V35.4258C37.392 34.8735 36.9443 34.4258 36.392 34.4258Z" fill="white"/>
<path d="M36.392 44.2617H32.4916C31.9393 44.2617 31.4916 44.7094 31.4916 45.2617V49.1623C31.4916 49.7146 31.9393 50.1623 32.4916 50.1623H36.392C36.9443 50.1623 37.392 49.7146 37.392 49.1623V45.2617C37.392 44.7094 36.9443 44.2617 36.392 44.2617Z" fill="white"/>
<path d="M46.228 24.5898H42.3276C41.7753 24.5898 41.3276 25.0376 41.3276 25.5898V29.4904C41.3276 30.0427 41.7753 30.4904 42.3276 30.4904H46.228C46.7803 30.4904 47.228 30.0427 47.228 29.4904V25.5898C47.228 25.0376 46.7803 24.5898 46.228 24.5898Z" fill="white"/>
<path d="M46.228 34.4258H42.3276C41.7753 34.4258 41.3276 34.8735 41.3276 35.4258V39.3263C41.3276 39.8786 41.7753 40.3263 42.3276 40.3263H46.228C46.7803 40.3263 47.228 39.8786 47.228 39.3263V35.4258C47.228 34.8735 46.7803 34.4258 46.228 34.4258Z" fill="white"/>
<path d="M46.228 44.2617H42.3276C41.7753 44.2617 41.3276 44.7094 41.3276 45.2617V49.1623C41.3276 49.7146 41.7753 50.1623 42.3276 50.1623H46.228C46.7803 50.1623 47.228 49.7146 47.228 49.1623V45.2617C47.228 44.7094 46.7803 44.2617 46.228 44.2617Z" fill="white"/>
</svg>
