<svg width="60" height="60" viewBox="0 0 60 60" fill="none" xmlns="http://www.w3.org/2000/svg">
<path d="M30 27.1543C26.6602 27.1543 23.9539 29.8844 23.9539 33.2536C23.9539 36.6246 26.6602 39.3528 30 39.3528C33.3399 39.3528 36.0462 36.6246 36.0462 33.2536C36.0462 29.8844 33.3399 27.1543 30 27.1543Z" fill="white"/>
<path d="M58.2861 16.2778C57.2333 15.2121 55.7501 14.5419 54.1315 14.5419H47.7796C47.2687 14.5438 46.7907 14.2379 46.571 13.7435L44.6686 9.48445C43.7275 7.3732 41.6345 6 39.3128 6H20.6872C18.3654 6 16.2725 7.37332 15.3295 9.4827V9.48457L13.4289 13.7436C13.2091 14.238 12.7312 14.5438 12.2203 14.542H5.86852C4.2498 14.542 2.76492 15.2122 1.71023 16.2779C0.655547 17.3398 0 18.8248 0 20.4416V47.7756C0 49.3924 0.655547 50.8774 1.71023 51.9394C2.76492 53.0051 4.24992 53.6753 5.86852 53.6734H32.3272H54.1315C55.7502 53.6753 57.2333 53.0051 58.2861 51.9394C59.3445 50.8773 60 49.3924 60 47.7756V20.4416C60 18.8248 59.3445 17.338 58.2861 16.2778ZM55.4626 47.7756C55.4626 48.1638 55.3125 48.4934 55.0671 48.746C54.8145 48.9932 54.4995 49.136 54.1315 49.1379H32.3272H5.86852C5.49867 49.136 5.18191 48.9933 4.93289 48.746C4.6875 48.4934 4.53738 48.1637 4.53738 47.7756V20.4416C4.53738 20.0534 4.6875 19.7238 4.93289 19.4712C5.18191 19.2221 5.49867 19.0812 5.86852 19.0793H12.2204C14.5385 19.0793 16.6332 17.7042 17.5745 15.5911L19.4715 11.3339C19.6949 10.8414 20.171 10.5355 20.6873 10.5355H39.3129C39.8292 10.5355 40.3054 10.8413 40.5268 11.332L42.4275 15.5929C43.3669 17.7041 45.4616 19.0792 47.7797 19.0792H54.1316C54.4997 19.0811 54.8146 19.222 55.0672 19.4711C55.3126 19.7237 55.4627 20.0551 55.4627 20.4415V47.7756H55.4626Z" fill="white"/>
<path d="M30 19.8672C26.3305 19.8653 22.998 21.3723 20.6012 23.793C18.2007 26.2136 16.7138 29.5663 16.7157 33.2522C16.7138 36.9381 18.2007 40.2945 20.6012 42.7115C22.998 45.134 26.3306 46.6391 30 46.6391C33.6676 46.6391 37.0019 45.134 39.3987 42.7115C41.7992 40.2945 43.2861 36.9381 43.2842 33.2522C43.2861 29.5663 41.7992 26.2136 39.3987 23.793C37.0019 21.3722 33.6676 19.8653 30 19.8672ZM36.9177 40.2523C35.1397 42.0449 32.7044 43.1454 30 43.1454C27.2936 43.1454 24.8602 42.0449 23.0804 40.2523C21.3061 38.4597 20.2093 35.9951 20.2074 33.2522C20.2093 30.5111 21.3061 28.0465 23.0804 26.2522C24.8602 24.4595 27.2936 23.3609 30 23.359C32.7044 23.3609 35.1397 24.4595 36.9177 26.2522C38.6937 28.0466 39.7906 30.5112 39.7924 33.2522C39.7906 35.9951 38.6939 38.4597 36.9177 40.2523Z" fill="white"/>
<path d="M49.9914 23H45.9595V27.032H49.9914V23Z" fill="white"/>
</svg>
