<svg width="60" height="60" viewBox="0 0 60 60" fill="none" xmlns="http://www.w3.org/2000/svg">
<g clip-path="url(#clip0_507_322)">
<path d="M58.5858 7.57042C59.3669 6.78937 59.3668 5.52306 58.5858 4.74202L55.258 1.4142C54.4769 0.633155 53.2106 0.633147 52.4296 1.41418L30.0002 23.843L7.57094 1.41412C6.78992 0.633109 5.52365 0.633085 4.7426 1.41407L1.41435 4.742C0.633237 5.52303 0.633206 6.78942 1.41428 7.57049L23.8441 30.0004L1.41428 52.4291C0.633203 53.2101 0.633186 54.4765 1.41425 55.2576L4.74199 58.5853C5.52304 59.3664 6.78938 59.3664 7.57042 58.5853L30.0002 36.1553L52.4297 58.5854C53.2107 59.3664 54.4769 59.3665 55.258 58.5856L58.5855 55.2587C59.3667 54.4777 59.3668 53.2112 58.5857 52.4301L36.1566 30.0004L58.5858 7.57042Z" fill="#888888"/>
</g>
<defs>
<clipPath id="clip0_507_322">
<rect width="60" height="60" fill="white"/>
</clipPath>
</defs>
</svg>
