<svg width="60" height="60" viewBox="0 0 60 60" fill="none" xmlns="http://www.w3.org/2000/svg">
<path d="M55.7365 15.7105C55.4729 14.3421 55.007 13.0044 54.3439 11.7397C53.6823 10.4764 52.817 9.29241 51.7624 8.23788C50.3584 6.83232 48.7184 5.7664 46.9732 5.05793C44.3545 4.00008 41.5045 3.73487 38.7677 4.2654C37.3993 4.53071 36.0601 4.99002 34.7969 5.65481C33.5369 6.3196 32.3497 7.18169 31.2951 8.23788L24.4371 15.0959C23.0525 16.4773 23.0525 18.7239 24.4371 20.1052C25.8216 21.4866 28.0634 21.4866 29.4464 20.1052L36.3044 13.244C37.0323 12.5194 37.8589 11.984 38.7468 11.6217C40.0764 11.0831 41.545 10.9456 42.9442 11.2173C43.6429 11.3532 44.3238 11.5894 44.966 11.9258C45.6065 12.2622 46.2082 12.699 46.7548 13.244C47.4827 13.9767 48.0164 14.8016 48.3787 15.6879C48.9173 17.0175 49.0548 18.4878 48.7831 19.8853C48.6471 20.5857 48.411 21.2666 48.0762 21.9055C47.7366 22.5493 47.3015 23.1509 46.7548 23.6977L39.8968 30.5541C38.5139 31.937 38.5139 34.1821 39.8968 35.5634C41.2797 36.9447 43.5216 36.9447 44.9045 35.5634L51.7625 28.7038C53.1697 27.2998 54.234 25.6598 54.9408 23.9145C56.0019 21.2957 56.2655 18.4456 55.7365 15.7105Z" fill="#3465FF"/>
<path d="M29.5565 40.8955L22.6968 47.7552C21.9673 48.4815 21.1408 49.0169 20.2544 49.3775C18.9248 49.9178 17.4545 50.0553 16.0571 49.7852C15.3567 49.6477 14.6774 49.4099 14.0353 49.0752C13.3947 48.7371 12.7931 48.2988 12.2464 47.7553C11.5185 47.0242 10.9832 46.1993 10.6224 45.3114C10.0838 43.9834 9.94632 42.5132 10.2164 41.1124C10.3523 40.4136 10.59 39.7327 10.9249 39.0921C11.2645 38.4516 11.6996 37.8499 12.2464 37.3016L19.1061 30.4436C20.4874 29.0622 20.4874 26.8188 19.1061 25.4376C17.7215 24.0547 15.4797 24.0547 14.0968 25.4376L7.23872 32.2939C5.8315 33.7012 4.76724 35.338 4.05876 37.0865C2.99936 39.702 2.7357 42.5568 3.26458 45.287C3.52823 46.6554 3.99241 47.9946 4.6572 49.2579C5.32033 50.5211 6.18408 51.7083 7.23872 52.7613C8.64593 54.1669 10.2828 55.2344 12.0281 55.9381C14.6451 57.0008 17.4983 57.2644 20.2318 56.7354C21.6018 56.4701 22.9394 56.006 24.2011 55.3428C25.4643 54.6812 26.6516 53.8159 27.7061 52.7613L34.5641 45.9016C35.9455 44.5203 35.9455 42.2769 34.5641 40.8956C33.1796 39.5125 30.9377 39.5125 29.5565 40.8955Z" fill="#3465FF"/>
<path d="M38.4476 21.5516C37.0662 20.1703 34.8228 20.1703 33.4399 21.5516L20.5503 34.4396C19.169 35.8224 19.169 38.0643 20.5503 39.4456C21.9349 40.8301 24.1783 40.8301 25.5597 39.4456L38.4476 26.5576C39.8321 25.1747 39.8321 22.9345 38.4476 21.5516Z" fill="#3465FF"/>
</svg>
