<svg width="60" height="60" viewBox="0 0 60 60" fill="none" xmlns="http://www.w3.org/2000/svg">
<path d="M9 44H4V8C4 3.58172 7.58172 0 12 0H42V5H12C10.3431 5 9 6.34315 9 8V44Z" fill="#3465FF"/>
<path fill-rule="evenodd" clip-rule="evenodd" d="M20 19V52C20 53.6569 21.3431 55 23 55H48C49.6569 55 51 53.6569 51 52V19C51 17.3431 49.6569 16 48 16H23C21.3431 16 20 17.3431 20 19ZM15 19V52C15 56.4183 18.5817 60 23 60H48C52.4183 60 56 56.4183 56 52V19C56 14.5817 52.4183 11 48 11H23C18.5817 11 15 14.5817 15 19Z" fill="#3465FF"/>
</svg>
