<svg width="60" height="60" viewBox="0 0 60 60" fill="none" xmlns="http://www.w3.org/2000/svg">
<g opacity="1">
<path d="M28.1482 0.96722C29.3084 0.361246 30.6917 0.361266 31.8519 0.967273L44.7104 7.68363L54.3423 5.03751C55.6154 4.68775 56.8721 5.64576 56.8721 6.96605V7.87031V10.4798V17.0719V34.7402C56.8712 37.0863 56.233 39.3336 55.2285 41.4142C54.2208 43.4968 52.8446 45.4334 51.2648 47.2274C48.1011 50.811 44.1185 53.8445 40.3701 56.0793C37.8635 57.5667 35.4786 58.6942 33.4044 59.3638C32.2078 59.7417 31.1329 59.9914 30.0002 59.9999C29.2528 59.9978 28.5423 59.8812 27.7938 59.7039C27.0486 59.5234 26.2718 59.2736 25.4551 58.9618C23.824 58.3393 22.0311 57.4703 20.1657 56.3932C16.4393 54.2361 12.4327 51.2644 9.19228 47.7364C7.03731 45.3798 5.21071 42.7725 4.12017 39.9006C3.50083 38.261 3.12817 36.5258 3.12817 34.7403V7.86844V6.96645C3.12817 5.64604 4.38509 4.68801 5.65828 5.03798L15.2867 7.68469L28.1482 0.96722Z" fill="url(#paint0_linear_827_2)"/>
</g>
<defs>
<linearGradient id="paint0_linear_827_2" x1="30.0001" y1="0" x2="30.0001" y2="59.9999" gradientUnits="userSpaceOnUse">
<stop stop-color="var(--first-stop-color, white)" stop-opacity="0"/>
<stop offset="1" stop-color="#888888"/>
</linearGradient>
</defs>
</svg>
