<svg width="60" height="60" viewBox="0 0 60 60" fill="none" xmlns="http://www.w3.org/2000/svg">
<g opacity="1">
<path d="M28.1482 0.96722C29.3084 0.361246 30.6917 0.361266 31.8519 0.967273L44.7104 7.68363L54.3423 5.03751C55.6154 4.68775 56.8721 5.64576 56.8721 6.96605V7.87031V10.4798V17.0719V34.7402C56.8712 37.0863 56.233 39.3336 55.2285 41.4142C54.2208 43.4968 52.8446 45.4334 51.2648 47.2274C48.1011 50.811 44.1185 53.8445 40.3701 56.0793C37.8635 57.5667 35.4786 58.6942 33.4044 59.3638C32.2078 59.7417 31.1329 59.9914 30.0002 59.9999C29.2528 59.9978 28.5423 59.8812 27.7938 59.7039C27.0486 59.5234 26.2718 59.2736 25.4551 58.9618C23.824 58.3393 22.0311 57.4703 20.1657 56.3932C16.4393 54.2361 12.4327 51.2644 9.19228 47.7364C7.03731 45.3798 5.21071 42.7725 4.12017 39.9006C3.50083 38.261 3.12817 36.5258 3.12817 34.7403V7.86844V6.96645C3.12817 5.64604 4.38509 4.68801 5.65828 5.03798L15.2867 7.68469L28.1482 0.96722Z" fill="url(#paint0_linear_815_2)"/>
<path fill-rule="evenodd" clip-rule="evenodd" d="M44.253 11.9575L30.9259 4.99639C30.3458 4.69339 29.6542 4.69338 29.0741 4.99636L15.7438 11.9587L8.39323 9.93815C7.75663 9.76316 7.12817 10.2422 7.12817 10.9024V34.7403C7.12817 35.9649 7.38347 37.2191 7.86088 38.4839C8.71539 40.7325 10.2028 42.9135 12.1414 45.0341C15.0511 48.201 18.7144 50.9311 22.1682 52.9306C23.8868 53.9227 25.4861 54.6923 26.8813 55.2247C27.573 55.4887 28.1822 55.6817 28.7254 55.8138C29.2894 55.947 29.6674 55.9969 29.9915 55.9998C30.5372 55.9929 31.1677 55.8748 32.1874 55.5534C33.8948 55.0008 35.9972 54.0226 38.3246 52.6418C41.806 50.5659 45.4366 47.7841 48.2628 44.5839M40.3701 56.0793C37.8635 57.5667 35.4786 58.6942 33.4044 59.3638C32.2078 59.7417 31.1329 59.9914 30.0002 59.9999C29.2528 59.9978 28.5423 59.8812 27.7938 59.7039C27.0486 59.5234 26.2718 59.2736 25.4551 58.9618C23.824 58.3393 22.0311 57.4703 20.1657 56.3932C16.4393 54.2361 12.4327 51.2644 9.19228 47.7364C7.03731 45.3798 5.21071 42.7725 4.12017 39.9006C3.50083 38.261 3.12817 36.5258 3.12817 34.7403V6.96645C3.12817 5.64604 4.38509 4.68801 5.65828 5.03798L15.2867 7.68469L28.1482 0.967221C29.3084 0.361246 30.6917 0.361266 31.8519 0.967273L44.7104 7.68363L54.3423 5.03751C55.6154 4.68775 56.8721 5.64576 56.8721 6.96605V34.7402C56.8712 37.0863 56.233 39.3336 55.2285 41.4142C54.2208 43.4968 52.8446 45.4334 51.2648 47.2274C48.1011 50.811 44.1185 53.8445 40.3701 56.0793ZM48.2628 44.5839C49.6668 42.9895 50.8145 41.3524 51.6269 39.6739C52.4327 38.0046 52.8712 36.3529 52.8721 34.7402V34.7386V10.9014C52.8721 10.2412 52.2438 9.76223 51.6072 9.93711L44.253 11.9575" fill="white"/>
</g>
<defs>
<linearGradient id="paint0_linear_815_2" x1="30.0001" y1="0" x2="30.0001" y2="59.9999" gradientUnits="userSpaceOnUse">
<stop stop-color="#DEDEDE"/>
<stop offset="1" stop-color="#F1F1F1"/>
</linearGradient>
</defs>
</svg>
