<svg width="60" height="60" viewBox="0 0 60 60" fill="none" xmlns="http://www.w3.org/2000/svg">
<g clip-path="url(#clip0_796_2)">
<path d="M57.6421 18.322C55.3628 12.9361 51.5612 8.3591 46.7748 5.12508C41.9883 1.89023 36.2067 -0.000937152 30.0005 3.48392e-07C25.863 3.48392e-07 21.9122 0.839415 18.3223 2.35805C12.9362 4.63734 8.35934 8.43891 5.12531 13.2253C1.89023 18.0118 -0.000937152 23.7933 3.48392e-07 29.9995C3.48392e-07 34.137 0.839415 38.0878 2.35805 41.6777C4.63734 47.0638 8.43797 51.6407 13.2254 54.8747C18.0118 58.1096 23.7934 60.0008 30.0005 59.9999C34.1371 59.9999 38.0878 59.1605 41.678 57.642C47.0639 55.3627 51.6409 51.562 54.8749 46.7746C58.1098 41.9882 60.0009 36.2066 60 29.9995C60 25.863 59.1606 21.9122 57.6421 18.322ZM28.2905 15.0158C28.7491 14.8539 29.5117 15.3756 29.3268 15.868C29.0193 16.6863 30.0874 17.091 30.4389 17.5642C30.7464 17.9769 31.3277 19.2878 30.07 19.0369C29.473 18.9179 29.2654 19.6502 28.4735 19.1907C28.6695 18.9116 29.4558 17.1019 28.8616 17.1302C28.5002 17.1477 27.9336 15.3736 28.2905 15.0158ZM27.3998 16.6736C27.615 16.6113 27.1207 16.7531 27.3998 16.6736C28.3958 16.388 28.438 18.0438 27.972 18.4164C26.9989 19.1918 26.9578 18.3779 27.1234 17.7179C27.1976 17.427 26.3682 16.9692 27.3998 16.6736ZM5.67715 19.7263C6.3702 18.0896 7.22684 16.5389 8.22105 15.0889C8.6659 15.0488 8.92676 14.8455 9.53367 14.2935C10.1077 14.9965 10.6806 15.6995 11.2555 16.4025C11.4313 16.6177 10.8746 16.884 11.1456 17.1284C11.4879 17.4368 11.7314 17.4506 12.0893 17.0258C12.3246 17.4514 12.5589 17.878 12.7942 18.3038C12.0875 18.5948 11.5035 18.9244 10.7411 18.9097C9.5318 18.8842 8.9359 18.7714 7.99125 19.5806C8.38664 20.2041 8.82422 19.8103 9.35695 19.5806C9.11438 20.2946 9.46406 21.3199 10.2824 21.4324C9.92168 21.7793 9.56016 22.1254 9.20039 22.4723C9.0348 22.6316 8.58715 22.0521 9.09246 21.697C8.90848 21.5561 8.52586 21.3968 8.2998 21.3437C8.22738 22.1868 7.42195 21.6934 7.06582 22.2252C6.6777 22.8037 7.43285 23.1653 6.58793 23.407C5.17184 23.8116 5.57367 25.268 4.49356 26.1046C4.38199 26.1915 4.10004 26.3627 3.82816 26.554C4.1393 24.1622 4.77094 21.872 5.67715 19.7263ZM8.58352 32.3924C8.5057 32.3475 8.42695 32.3017 8.3482 32.256C8.29336 31.9978 9.00281 32.1049 9.09516 32.179C9.31219 32.3521 8.64199 32.3814 8.58352 32.3924ZM5.93988 32.0107C6.0525 32.0491 6.15129 32.0307 6.23742 31.9548C6.1275 31.866 6.00949 31.7891 5.88492 31.7251C5.78238 31.3168 8.06168 32.0382 7.73859 32.2204C7.50422 32.3531 5.42367 32.3706 5.53078 32.1526C5.63508 32.0218 5.77242 31.9741 5.93906 32.0108C5.80078 31.9584 5.88316 31.9896 5.93988 32.0107ZM3.61477 30.5616C4.48441 30.8078 5.33391 31.1565 5.46938 31.2462C5.50512 31.2709 5.1491 31.4146 5.26336 31.453C5.37879 31.4796 5.48672 31.5217 5.59102 31.5766C5.69356 31.6617 4.1768 32.0059 4.26563 31.6581C4.34063 31.5611 4.42582 31.4732 4.52016 31.3927C4.5027 31.4164 4.07883 31.1839 3.62297 30.9697C3.6184 30.8344 3.6184 30.697 3.61477 30.5616ZM4.08902 32.0994C4.24559 32.0673 5.15355 32.308 4.75535 32.5104C4.62082 32.4912 4.48629 32.471 4.35258 32.4509C4.08258 32.3996 3.99469 32.2825 4.08902 32.0994ZM19.6155 42.8395C19.0416 43.4501 19.0636 43.7064 18.9867 44.4754C18.8851 45.4868 18.7598 47.4704 17.622 47.5465C15.7491 47.6709 15.2145 49.2124 14.6827 50.6742C14.5985 50.9086 14.5032 51.1109 14.4016 51.2912C11.9494 49.4907 9.81563 47.2801 8.11125 44.7564C6.27961 42.0432 4.94227 38.9748 4.2191 35.6741C4.48453 35.7949 4.5907 36.0622 4.59164 36.3377C4.59164 36.3404 4.59164 36.3441 4.59164 36.3478C4.60816 36.3259 4.62188 36.303 4.64203 36.282C4.82426 36.0532 6.27504 33.8938 6.15609 35.3629C6.97629 35.5322 6.86367 34.9034 7.4632 34.8036C8.10762 34.6965 8.25867 35.6366 8.89301 35.4353C10.0061 35.081 10.0867 35.253 10.699 36.1721C11.3278 37.115 12.8575 36.7288 13.7032 37.3228C14.3843 37.8015 14.5078 38.3516 14.6058 39.1526C14.6461 39.4875 15.9863 39.5334 16.301 39.5334C16.637 39.5334 16.5857 40.0095 16.7293 40.1897C16.8465 40.3371 17.3235 40.2831 17.4763 40.3031C18.2488 40.4003 19.1258 40.6116 19.7575 41.0868C20.4816 41.6312 20.1245 42.2967 19.6155 42.8395ZM22.8872 10.8691C23.0729 10.8298 23.396 11.1886 23.5022 11.1182C23.8775 10.8663 23.7942 10.8499 24.3425 10.8189C24.4918 10.8107 26.762 10.9863 26.1422 11.6087C26.1414 11.6096 26.1414 11.6096 26.1414 11.6096C26.1414 11.6106 26.1414 11.6106 26.1404 11.6106C25.2671 12.482 24.587 12.1918 23.5637 12.1918C23.1232 12.1918 22.0286 11.0467 22.8872 10.8691ZM48.7216 46.7079C48.3491 47.9959 48.4653 48.3217 47.2167 48.7556C46.825 47.5383 46.9522 46.7967 46.9522 45.5391C46.9522 45.4961 48.6575 43.9133 48.847 43.6873C49.4513 44.8413 49.0741 45.4895 48.7216 46.7079ZM56.3752 30.9963C56.1125 30.6649 55.8772 30.2723 55.6337 30.0279C55.1074 29.5016 53.6729 29.918 52.8519 29.8073C52.1278 29.7103 51.9465 29.8329 51.6912 29.1527C51.5557 28.7912 51.065 29.1765 50.7291 29.2086C49.7102 29.3047 49.2572 27.6461 48.3179 28.177C48.62 28.6502 49.5326 30.0802 49.9098 30.2055C50.6732 30.4601 50.4911 29.4046 51.4028 29.6756C51.3304 29.9529 51.4357 30.2797 51.3588 30.5562C54.0234 29.8826 51.7268 33.2666 50.5496 33.0149C50.2274 32.9453 50.351 33.425 50.0105 33.5238C49.4888 33.6766 48.9669 33.8286 48.4443 33.9806C47.7824 34.1737 47.1957 34.6554 46.8221 34.0154C45.9517 32.5243 45.3851 30.6872 44.2884 29.4852C44.0991 29.2774 43.7704 28.9644 43.5323 28.6212C43.5415 28.6486 43.5497 28.6779 43.5598 28.7053C43.3484 28.5514 43.0352 28.5332 42.8101 28.3978C42.5381 29.153 43.5708 30.1581 44.0027 30.775C44.5594 31.5696 44.692 32.668 45.278 33.4205C45.5297 33.7445 45.9837 33.9055 46.2124 34.2497C46.4066 34.5408 46.8166 35.4983 47.1288 35.6237C47.6066 35.8159 49.1564 35.1001 49.6845 34.9628C49.4034 35.6384 48.7847 37.9314 48.1348 38.2225C46.8926 38.7791 46.5787 39.2807 45.7778 40.4112C45.7146 40.4991 45.1269 41.1443 45.1195 41.1151C45.2679 41.6945 45.4161 42.2739 45.5636 42.8532C45.6732 43.2826 45.8373 45.2132 45.5067 45.3102C43.9826 45.7624 43.8701 46.1907 43.8326 47.7369C43.817 48.3731 43.0755 49.271 42.6014 49.8157C41.9058 50.6148 41.3657 51.6895 40.2911 51.8387C39.296 51.9769 38.2992 52.1059 37.3014 52.236C37.3014 51.4296 37.3755 51.1348 36.8685 50.527C36.2726 49.8121 36.1856 49.6061 36.0666 48.6825C35.9329 47.6389 34.6697 46.1945 34.9617 45.2773C35.5366 43.4748 35.3746 42.8296 34.8959 40.9732C34.7522 40.4139 34.0537 40.1127 33.91 39.59C33.7975 39.1846 34.0419 38.1895 34.0419 37.7392C33.1768 37.8114 33.0267 37.8618 32.3557 37.3136C31.8056 36.8641 31.2783 37.2723 30.6275 37.4829C30.0874 37.6577 29.2663 37.4317 28.7025 37.3923C28.2493 37.3602 27.5793 37.872 27.1673 37.7392C26.2986 37.4591 25.0345 35.2109 24.4358 34.4996C23.8729 33.8333 24.217 32.2561 24.175 31.3426C24.1182 30.127 25.6679 28.9682 26.5403 28.4153C26.7802 28.2633 26.9046 27.4312 27.2314 27.1145C27.6947 26.6651 27.993 26.1626 28.643 26.1278C29.7872 26.0673 31.0925 25.5026 32.2788 25.3351C32.9388 25.2417 33.5998 25.1483 34.2607 25.055C34.5335 25.0165 35.0195 26.0381 34.3495 26.2386C34.7468 27.0248 36.0878 26.7814 36.2023 27.1247C36.4283 27.803 37.3007 27.6996 37.9635 27.8241C37.8718 26.1571 39.2385 27.3581 40.0431 27.5842C40.6527 27.7543 41.0602 27.3855 41.6652 27.3846C42.1677 27.3837 42.7581 27.6272 43.2516 27.7371C43.2524 27.7434 43.2543 27.7481 43.256 27.7545C43.2642 27.716 43.2744 27.6776 43.29 27.6391C43.6195 26.8153 43.7796 26.3255 43.7796 25.4449C43.256 25.5071 41.6057 26.007 41.1809 25.7534C40.9273 25.6023 40.6828 24.8142 40.5438 24.5524C40.3022 24.0947 40.6243 24.1002 41.0436 23.8266C42.4872 22.8855 44.1532 23.5355 45.7185 23.1977C45.6013 22.6294 45.3001 22.3566 44.8818 22.0078C44.2548 21.486 44.381 21.4155 44.5286 20.5982C44.1175 20.7154 43.7065 20.8325 43.2946 20.9505C43.4464 21.13 43.4511 21.4348 43.603 21.6114C42.5685 22.3318 42.8578 21.0063 42.1494 20.9075C41.5178 20.8178 41.3521 21.8631 41.0317 22.2421C40.5739 22.7858 41.2276 23.2151 40.4971 23.4843C39.9872 23.672 39.6485 24.1378 39.0654 23.9474C39.4948 24.1846 39.7547 24.5305 39.6375 25.0046C39.4672 24.9111 39.2311 24.9295 39.0654 24.8289C39.1506 25.0614 39.1003 25.3496 39.1972 25.5766C38.496 25.2608 37.7994 24.1093 37.6768 23.3733C37.5716 22.7435 36.0027 21.9069 35.4516 21.4355C34.5636 22.4067 37.0085 22.9155 37.2356 23.7486C37.2191 23.6864 36.7643 25.1153 36.7295 25.1364C36.1152 25.5171 36.2324 24.2365 36.0311 24.0525C35.4279 23.5051 34.1948 21.7852 33.5404 22.3152C32.6414 23.0439 32.9994 22.1907 32.2726 22.4177C31.5888 22.631 31.9028 23.2891 31.4808 23.4155C30.3485 23.7551 31.2016 24.1029 30.5251 24.6668C29.8552 25.2252 29.7498 25.2234 28.8811 25.206C27.2243 25.1748 26.9039 24.7813 27.0696 23.1189C27.2106 21.7174 28.7704 22.2969 29.9237 22.3152C30.3457 22.3225 30.1828 21.2332 29.9585 21.009C29.5695 20.6209 29.0422 20.7307 28.7539 20.2016C30.4538 19.8977 30.8839 19.0245 32.235 18.0862C32.452 17.936 33.7363 17.462 33.7262 17.3246C33.7015 16.943 33.3994 15.4948 34.3065 15.6623C35.1523 15.8197 33.9193 17.0857 34.6058 17.1232C34.9921 17.1452 36.0137 17.6532 36.1061 17.5526C36.6507 16.9584 37.2969 17.1818 38.0889 17.202C38.3625 17.2092 38.7287 15.8958 38.845 15.6184C39.8152 16.5988 39.633 15.3219 39.505 14.7369C39.8684 14.7506 41.2158 14.9666 41.4446 14.4732C41.8649 13.5697 40.4176 13.8993 40.0121 14.0109C39.5334 14.141 38.6319 14.2499 38.4478 13.5039C38.3883 13.2595 38.9522 12.0649 39.1828 11.9432C39.8411 11.5944 40.0754 11.2411 39.4109 10.6983C38.6694 10.0904 38.6658 11.6429 38.5807 11.7409C37.8446 12.5866 35.9078 13.0269 37.5233 14.3855C37.0098 14.5008 36.8186 14.758 36.803 15.2156C36.7718 16.0623 36.8341 16.0046 36.0029 16.1585C35.2147 16.3039 35.0875 14.919 34.834 14.2526C34.2564 14.8631 33.0755 15.925 32.5876 14.5172C32.1391 13.2183 33.2623 12.8365 34.1373 12.4384C34.8816 12.1007 35.6193 10.5866 36.1236 9.93211C36.4202 9.54855 36.174 9.33246 36.6198 8.96449C37.0637 8.59934 37.4354 8.55633 38.0057 8.42812C38.4853 8.32008 38.8468 7.77633 39.3155 7.76625C39.9893 7.75359 40.6657 7.80387 41.3385 7.83586C42.1596 7.87617 41.5436 8.23594 41.9528 8.36953C42.5643 8.56992 43.1748 8.77043 43.7854 8.97C44.4554 9.18973 45.867 9.78562 45.3698 10.4694C44.8352 11.2035 43.4568 10.2982 42.9423 10.0227C42.5239 10.7696 43.3148 10.6241 43.692 11.036C43.789 11.1422 43.507 11.5908 43.6032 11.697C43.7579 11.8664 44.113 11.9917 44.3099 12.1062C44.9085 12.4522 44.6705 11.157 44.4417 11.3885C44.7612 11.0645 44.9882 11.0645 45.498 11.3885C45.5732 10.7057 46.3485 10.4612 46.9086 10.7715C46.9178 10.4337 46.9261 10.0941 46.9352 9.75539C48.8309 11.3427 50.5015 13.1899 51.8892 15.244C54.7361 19.4584 56.3955 24.5268 56.3965 29.9998C56.3962 30.3336 56.3879 30.666 56.3752 30.9963Z" fill="white"/>
<path d="M5.9399 32.0098C5.9399 32.0098 5.9399 32.0098 5.93896 32.0098C6.0067 32.0353 5.97928 32.0243 5.9399 32.0098Z" fill="white"/>
<path d="M50.7419 23.3741C50.7684 23.5005 50.1002 22.8112 50.0472 22.7362C49.8229 22.4202 49.6005 22.1045 49.3762 21.7878C50.0665 21.7577 50.278 21.3174 50.2578 20.6875C48.9534 20.6875 47.2086 21.3777 48.449 22.8148C48.6212 23.0136 49.1511 23.4291 49.1997 23.6826C49.2355 23.8675 48.6852 24.0175 48.742 24.306C48.9279 25.2323 49.1805 25.1463 50.0812 25.4457C50.31 25.4291 50.5691 25.2634 50.7869 25.182C50.6341 24.8516 50.2973 24.3939 50.2579 24.0351C50.2458 23.9362 50.8308 23.8025 50.7419 23.3741Z" fill="white"/>
</g>
<defs>
<clipPath id="clip0_796_2">
<rect width="60" height="60" fill="white"/>
</clipPath>
</defs>
</svg>
