<svg width="60" height="60" viewBox="0 0 60 60" fill="none" xmlns="http://www.w3.org/2000/svg">
<g clip-path="url(#clip0_507_385)">
<circle cx="30" cy="30" r="28" stroke="#DF5656" stroke-width="4"/>
<path d="M42.0744 21.9497C42.4649 21.5592 42.4649 20.926 42.0744 20.5355L39.246 17.7071C38.8554 17.3166 38.2223 17.3165 37.8318 17.707L29.8903 25.6477L21.9501 17.7076C21.5596 17.3171 20.9264 17.3171 20.5359 17.7076L17.7075 20.536C17.317 20.9265 17.317 21.5596 17.7075 21.9502L25.6472 29.8907L17.7071 37.8308C17.3166 38.2214 17.3166 38.8546 17.7071 39.2451L20.5361 42.0738C20.9266 42.4643 21.5598 42.4643 21.9503 42.0738L29.8904 34.1332L37.8309 42.0735C38.2214 42.464 38.8545 42.464 39.245 42.0735L42.0736 39.2452C42.4641 38.8547 42.4642 38.2215 42.0736 37.831L34.1332 29.8905L42.0744 21.9497Z" fill="#DF5656"/>
</g>
<defs>
<clipPath id="clip0_507_385">
<rect width="60" height="60" fill="white"/>
</clipPath>
</defs>
</svg>
