<svg width="60" height="60" viewBox="0 0 60 60" fill="none" xmlns="http://www.w3.org/2000/svg">
<path d="M45.9577 17.3122C47.5512 21.3669 44.6787 27.5195 40.6469 25.3703C37.6769 23.785 38.4498 20.906 40.7003 16.8742C43.8948 11.1504 38.3338 7.14809 38.3338 7.14809C38.3338 7.14809 37.2776 14.4232 31.2161 13.1718C26.0307 12.1017 25.8171 3.2257 28.0622 0C19.9636 0.962344 18.7731 12.605 22.5601 16.8926C27.1145 22.0487 26.2607 28.9218 20.3962 28.6807C16.1325 28.5059 14.1599 23.1796 16.4176 17.9332C8.71104 21.1222 5.61413 30.8126 6.18272 36.885C6.56545 40.9637 7.40276 45.8824 10.8272 50.0899C16.887 58.539 28.0328 62.2948 38.2751 58.5518C48.1677 54.9377 54.1978 45.4398 53.8704 35.4607C53.8189 30.9606 52.8067 21.9061 45.9577 17.3122Z" fill="url(#paint0_radial_507_251)"/>
<defs>
<radialGradient id="paint0_radial_507_251" cx="0" cy="0" r="1" gradientUnits="userSpaceOnUse" gradientTransform="translate(30.0001 60) rotate(-90) scale(39 31.048)">
<stop stop-color="#F2F2D9"/>
<stop offset="0.25" stop-color="#F2F2D9"/>
<stop offset="0.5" stop-color="#F5D150"/>
<stop offset="0.791667" stop-color="#F19B42"/>
<stop offset="1" stop-color="#E43101"/>
</radialGradient>
</defs>
</svg>
