<svg width="170" height="60" viewBox="0 0 170 60" fill="none" xmlns="http://www.w3.org/2000/svg">
<path d="M43.0072 0C41.1187 0 39.3404 0.889166 38.2072 2.4L2.20723 50.4C-0.759332 54.3554 2.06296 60 7.00723 60L46.0072 0H43.0072Z" fill="#3E9C46"/>
<path d="M52.0073 0L19.0073 60H31.0073L58.0073 0H52.0073Z" fill="#3E9C46"/>
<path d="M64.0073 0L43.0073 60H55.0073L70.0073 0H64.0073Z" fill="#3E9C46"/>
<path d="M76.0073 0L67.0073 60H79.0073L82.0073 0H76.0073Z" fill="#3E9C46"/>
<path d="M88.0073 0L91.0073 60H103.007L94.0073 0H88.0073Z" fill="#3E9C46"/>
<path d="M100.007 0L115.007 60H127.007L106.007 0H100.007Z" fill="#3E9C46"/>
<path d="M112.007 0L139.007 60H151.007L118.007 0H112.007Z" fill="#3E9C46"/>
<path d="M124.007 0L163.007 60C167.952 60 170.774 54.3554 167.807 50.4L131.807 2.4C130.674 0.889165 128.896 0 127.007 0H124.007Z" fill="#3E9C46"/>
<path d="M46.0073 0L7.00732 60H19.0073L52.0073 0H46.0073Z" fill="#72A85C"/>
<path d="M58.0073 0L31.0073 60H43.0073L64.0073 0H58.0073Z" fill="#72A85C"/>
<path d="M70.0073 0L55.0073 60.0006H67.0073L76.0073 0.000595093L70.0073 0Z" fill="#72A85C"/>
<path d="M82.0073 0L79.0073 60H91.0073L88.0073 0H82.0073Z" fill="#72A85C"/>
<path d="M94.0073 0L103.007 60H115.007L100.007 0H94.0073Z" fill="#72A85C"/>
<path d="M106.007 0L127.007 60H139.007L112.007 0H106.007Z" fill="#72A85C"/>
<path d="M118.007 0L151.007 60H163.007L124.007 0H118.007Z" fill="#72A85C"/>
<path fill-rule="evenodd" clip-rule="evenodd" d="M50.0851 17.9374C50.0856 17.9376 50.086 17.9377 50.5071 16.498C50.9281 15.0583 50.9286 15.0585 50.9291 15.0586L50.9323 15.0596L50.9377 15.0611L50.9517 15.0654L50.9928 15.0781C51.0258 15.0885 51.0699 15.1029 51.1234 15.1212C51.2303 15.1578 51.3765 15.2109 51.5491 15.2815C51.8896 15.4209 52.3562 15.6378 52.8332 15.945C53.7139 16.5123 55.0395 17.6644 55.0068 19.5243C54.9843 20.8074 54.2026 21.988 53.4623 22.8698C52.668 23.816 51.6484 24.7313 50.6802 25.5132C49.7035 26.3019 48.7348 26.9901 48.0139 27.4792C47.6523 27.7246 47.3502 27.9217 47.1371 28.0584C47.0305 28.1268 46.946 28.1802 46.8873 28.217L46.8188 28.2597L46.7999 28.2713L46.7945 28.2747C46.7942 28.2749 46.7917 28.2764 46.0071 26.998C45.2224 25.7196 45.2223 25.7197 45.2222 25.7197L45.225 25.718L45.238 25.71L45.2942 25.6749C45.3445 25.6434 45.4201 25.5957 45.5173 25.5333C45.7117 25.4086 45.992 25.2257 46.3295 24.9967C47.0069 24.5371 47.9035 23.8994 48.7954 23.1792C49.6957 22.4521 50.548 21.6755 51.1647 20.9409C51.8355 20.1419 52.0041 19.6529 52.0073 19.4717C52.0117 19.2199 51.8372 18.872 51.2087 18.4672C50.931 18.2883 50.6407 18.1513 50.413 18.0581C50.3014 18.0124 50.2106 17.9796 50.1515 17.9594C50.1221 17.9493 50.101 17.9425 50.0895 17.9389L50.0851 17.9374ZM50.0798 17.9359C50.0795 17.9358 50.0788 17.9356 50.0798 17.9359Z" fill="white"/>
<path fill-rule="evenodd" clip-rule="evenodd" d="M40.8825 4.91942C41.7246 3.71645 43.1006 3 44.5691 3H125.445C126.914 3 128.29 3.71645 129.132 4.91942L156.432 43.9194C158.519 46.9019 156.386 51 152.745 51H17.2691C13.6284 51 11.4948 46.9019 13.5825 43.9194L40.8825 4.91942ZM44.5691 6C44.0796 6 43.6209 6.23882 43.3402 6.63981L16.0402 45.6398C15.3443 46.634 16.0555 48 17.2691 48H83.5071V6H44.5691ZM86.5071 6V48H152.745C153.959 48 154.67 46.634 153.974 45.6398L126.674 6.63981C126.393 6.23882 125.935 6 125.445 6H86.5071Z" fill="white"/>
<path fill-rule="evenodd" clip-rule="evenodd" d="M89.7068 22.7465C90.7991 22.0183 91.007 21.3417 91.007 21C91.007 20.6583 90.7991 19.9817 89.7068 19.2535C88.6355 18.5393 86.9826 18 85.007 18C83.0313 18 81.3785 18.5393 80.3071 19.2535C79.2148 19.9817 79.007 20.6583 79.007 21C79.007 21.3417 79.2148 22.0183 80.3071 22.7465C81.3785 23.4607 83.0313 24 85.007 24C86.9826 24 88.6355 23.4607 89.7068 22.7465ZM85.007 27C89.9775 27 94.007 24.3137 94.007 21C94.007 17.6863 89.9775 15 85.007 15C80.0364 15 76.007 17.6863 76.007 21C76.007 24.3137 80.0364 27 85.007 27Z" fill="white"/>
<path fill-rule="evenodd" clip-rule="evenodd" d="M50.8341 12.8422C51.0091 12.4456 50.7187 12 50.2852 12H38.507V9H51.2057C53.3731 9 54.8253 11.2279 53.9505 13.2109L45.2079 33.0273C44.0086 35.7458 41.3174 37.5 38.3461 37.5H20.507V34.5H38.3461C40.1289 34.5 41.7436 33.4475 42.4632 31.8164L50.8341 12.8422Z" fill="white"/>
<path fill-rule="evenodd" clip-rule="evenodd" d="M40.1907 16.9471C40.3032 16.7471 40.1587 16.5 39.9292 16.5H35.507V13.5H41.7246C43.4454 13.5 44.5293 15.3532 43.6856 16.8531L38.4245 26.2062C37.6275 27.6231 36.1281 28.5 34.5024 28.5H28.007V25.5H34.5024C35.0443 25.5 35.5441 25.2077 35.8098 24.7354L40.1907 16.9471Z" fill="white"/>
<path fill-rule="evenodd" clip-rule="evenodd" d="M129.823 16.9471C129.711 16.7471 129.855 16.5 130.085 16.5H134.507V13.5H128.289C126.568 13.5 125.485 15.3532 126.328 16.8531L131.589 26.2062C132.386 27.6231 133.886 28.5 135.512 28.5H142.007V25.5H135.512C134.97 25.5 134.47 25.2077 134.204 24.7354L129.823 16.9471Z" fill="white"/>
<path fill-rule="evenodd" clip-rule="evenodd" d="M116.064 13.2109C115.189 11.2279 116.641 9 118.808 9H131.507V12H119.729C119.295 12 119.005 12.4456 119.18 12.8422L127.551 31.8164C128.27 33.4475 129.885 34.5 131.668 34.5H149.507V37.5H131.668C128.697 37.5 126.005 35.7458 124.806 33.0273L116.064 13.2109Z" fill="white"/>
<path fill-rule="evenodd" clip-rule="evenodd" d="M118.757 15.1992C118.757 15.1992 118.758 15.1989 119.507 16.4983C120.257 17.7976 120.257 17.7974 120.257 17.7974V17.7974L120.245 17.8045L120.184 17.8416C120.127 17.8761 120.043 17.9292 119.938 17.9983C119.727 18.1376 119.442 18.3366 119.147 18.5752C118.485 19.1105 118.045 19.6283 117.93 19.9726C117.913 20.024 117.857 20.3415 118.426 21.082C118.954 21.7691 119.795 22.5109 120.755 23.2207C121.7 23.9186 122.686 24.5312 123.443 24.9725C123.82 25.1921 124.135 25.3667 124.355 25.4855C124.465 25.5448 124.55 25.5901 124.607 25.62L124.671 25.653L124.685 25.6605L124.688 25.662C124.688 25.662 124.688 25.6618 124.007 26.9983C123.326 28.3347 123.325 28.3344 123.325 28.3344L123.322 28.333L123.316 28.3297L123.294 28.3184L123.215 28.2772C123.147 28.2417 123.05 28.1903 122.928 28.1244C122.685 27.9927 122.341 27.8024 121.932 27.5644C121.12 27.0907 120.034 26.4178 118.973 25.6336C117.928 24.8613 116.827 23.9246 116.048 22.9107C115.309 21.9503 114.577 20.5443 115.084 19.0239C115.493 17.7964 116.553 16.8143 117.261 16.2425C117.65 15.9276 118.017 15.6712 118.287 15.4937C118.422 15.4044 118.535 15.3335 118.616 15.2838C118.657 15.2589 118.69 15.2392 118.714 15.2249L118.743 15.2077L118.752 15.2022L118.757 15.1992Z" fill="white"/>
</svg>
