<svg width="60" height="60" viewBox="0 0 60 60" fill="none" xmlns="http://www.w3.org/2000/svg">
<path fill-rule="evenodd" clip-rule="evenodd" d="M33.3198 22.5192C34.8109 21.5707 36.6732 20.0825 36.318 17.4732C35.4755 15.8321 35 13.9716 35 12C35 5.37258 40.3726 0 47 0C53.6274 0 59 5.37258 59 12C59 18.6274 53.6274 24 47 24C45.014 24 43.1407 23.5175 41.4908 22.6635C40.5615 23.2543 39.8356 23.7272 39.1973 24.1431L39.1971 24.1432L39.197 24.1433L39.1967 24.1434C38.098 24.8592 37.2588 25.4059 36.0883 26.0937C34.2554 27.1693 33.23 28.3804 32.6679 29.4981C33.23 30.6178 34.2554 31.8287 36.0883 32.9044C37.259 33.5923 38.0983 34.1391 39.1973 34.8551L39.1974 34.8552L39.1982 34.8557L39.1989 34.8562C39.8372 35.272 40.5631 35.745 41.4924 36.3357C43.1419 35.4821 45.0146 35 47 35C53.6274 35 59 40.3726 59 47C59 53.6274 53.6274 59 47 59C40.3726 59 35 53.6274 35 47C35 45.0285 35.4754 43.1681 36.3179 41.5271C36.6743 38.9166 34.8114 37.4278 33.3199 36.4791L29.9928 34.368L8.38473 44.6801C5.01563 46.0685 2.58577 45.5251 1.00012 43.0336L22.3244 29.4981L1 15.9628C2.58577 13.473 5.01551 12.9279 8.38462 14.3182L29.9927 24.6303L33.3198 22.5192ZM44 43.2831C44 42.5021 44.8551 42.0226 45.5215 42.4298L51.6037 46.1467C52.2418 46.5366 52.2418 47.4634 51.6037 47.8533L45.5215 51.5702C44.8551 51.9774 44 51.4979 44 50.7169V43.2831ZM47 18C50.3137 18 53 15.3137 53 12C53 8.68629 50.3137 6 47 6C43.6863 6 41 8.68629 41 12C41 15.3137 43.6863 18 47 18Z" fill="#3465FF"/>
</svg>
