<svg width="60" height="50" viewBox="0 0 60 50" fill="none" xmlns="http://www.w3.org/2000/svg">
<path d="M58 22.7298V43C58 45.7614 55.7614 48 53 48H44.1729C41.7565 48 39.6858 46.2719 39.2535 43.8944L38.7465 41.1056C38.3142 38.7281 36.2435 37 33.8271 37H26.1729C23.7565 37 21.6858 38.7281 21.2535 41.1056L20.7465 43.8944C20.3142 46.2719 18.2435 48 15.8271 48H7C4.23858 48 2 45.7614 2 43V22.7298C2 21.0284 2.8651 19.4439 4.29621 18.5239L27.2962 3.73815C28.9433 2.67934 31.0568 2.67934 32.7038 3.73815L55.7038 18.5239C57.1349 19.4439 58 21.0284 58 22.7298Z" fill="#3465FF"/>
</svg>
