<svg width="60" height="50" viewBox="0 0 60 50" fill="none" xmlns="http://www.w3.org/2000/svg">
<path d="M56 22.7298V43C56 44.6569 54.6569 46 53 46H44.1729C42.723 46 41.4806 44.9631 41.2213 43.5367L40.7142 40.7478C40.109 37.4194 37.2101 35 33.8271 35H26.1729C22.7899 35 19.891 37.4194 19.2858 40.7478L18.7787 43.5367C18.5194 44.9631 17.277 46 15.8271 46H7C5.34315 46 4 44.6569 4 43V22.7298C4 21.709 4.51906 20.7582 5.37773 20.2062L28.3777 5.42051C29.3659 4.78522 30.6341 4.78522 31.6223 5.42051L54.6223 20.2062C55.4809 20.7582 56 21.709 56 22.7298Z" stroke="white" stroke-width="4"/>
</svg>
