<svg width="60" height="60" viewBox="0 0 60 60" fill="none" xmlns="http://www.w3.org/2000/svg">
<g clip-path="url(#clip0_880_16)">
<path d="M34.8784 4.89949L24.9445 14.8333C23.8706 15.9072 23.8706 17.6484 24.9445 18.7222C26.0184 19.7961 27.7595 19.7961 28.8334 18.7222L38.5556 9C41.9921 5.56356 47.5636 5.56356 51.0001 9C54.4365 12.4364 54.4365 18.008 51.0001 21.4444L41.2778 31.1667C40.204 32.2406 40.2039 33.9817 41.2778 35.0556C42.3517 36.1295 44.0928 36.1295 45.1667 35.0556L55.1006 25.1217C60.5679 19.6544 60.5679 10.7901 55.1006 5.32271L54.6774 4.89949C49.21 -0.567846 40.3457 -0.567848 34.8784 4.89949Z" fill="#3465FF"/>
<path d="M4.89952 34.8798L14.8334 24.9459C15.9073 23.8721 17.6484 23.8721 18.7223 24.9459C19.7962 26.0198 19.7962 27.761 18.7223 28.8348L9.00003 38.5571C5.56359 41.9935 5.56359 47.5651 9.00003 51.0015C12.4365 54.4379 18.008 54.4379 21.4445 51.0015L31.1667 41.2793C32.2406 40.2054 33.9817 40.2054 35.0556 41.2793C36.1295 42.3532 36.1295 44.0943 35.0556 45.1682L25.1217 55.102C19.6544 60.5694 10.7901 60.5693 5.32274 55.102L4.89952 54.6788C-0.567816 49.2115 -0.567816 40.3471 4.89952 34.8798Z" fill="#3465FF"/>
<path d="M40.8893 23.0013L23.0004 40.8902C21.9265 41.9641 20.1854 41.9641 19.1115 40.8902C18.0376 39.8163 18.0376 38.0752 19.1115 37.0013L37.0004 19.1124C38.0743 18.0385 39.8154 18.0385 40.8893 19.1124C41.9632 20.1863 41.9632 21.9274 40.8893 23.0013Z" fill="#3465FF"/>
</g>
<defs>
<clipPath id="clip0_880_16">
<rect width="60" height="60" fill="white"/>
</clipPath>
</defs>
</svg>
