<svg width="60" height="60" viewBox="0 0 60 60" fill="none" xmlns="http://www.w3.org/2000/svg">
<path d="M59.8451 13.1578C59.5746 11.7954 58.9705 10.5486 58.1269 9.51863C57.949 9.29422 57.7631 9.09324 57.5617 8.89227C56.067 7.39016 53.9691 6.45312 51.6772 6.45312H8.32277C6.03094 6.45312 3.94055 7.39016 2.43879 8.89227C2.23781 9.09324 2.05195 9.29422 1.87359 9.51863C1.02949 10.5485 0.425391 11.7954 0.162422 13.1578C0.054375 13.6836 0 14.227 0 14.7764V45.2255C0 46.3937 0.247734 47.5166 0.689531 48.5306C1.09934 49.4986 1.70355 50.3744 2.43867 51.1088C2.625 51.2947 2.81004 51.4655 3.01195 51.6355C4.45172 52.8279 6.3102 53.548 8.32277 53.548H51.6772C53.6905 53.548 55.5571 52.8278 56.9885 51.628C57.1898 51.4655 57.3758 51.2947 57.5617 51.1088C58.2964 50.3744 58.9005 49.4986 59.3188 48.5306V48.5231C59.7605 47.5091 59.9999 46.3937 59.9999 45.2257V14.7764C60 14.227 59.9464 13.6836 59.8451 13.1578ZM5.45027 11.9034C6.19383 11.1607 7.19238 10.711 8.32277 10.711H51.6772C52.8076 10.711 53.815 11.1607 54.5497 11.9034C54.6812 12.0357 54.8051 12.1831 54.9144 12.3296L32.1909 32.1337C31.5642 32.683 30.7901 32.9543 30 32.9543C29.2179 32.9543 28.4442 32.683 27.8092 32.1337L5.09438 12.3212C5.19492 12.1747 5.31879 12.0357 5.45027 11.9034ZM4.25789 45.2255V16.7273L20.7021 31.0728L4.26621 45.4031C4.25789 45.3487 4.25789 45.2875 4.25789 45.2255ZM51.6772 49.2893H8.32277C7.58672 49.2893 6.89801 49.0958 6.3102 48.7558L23.6514 33.6434L25.2703 35.0518C26.6251 36.2291 28.3205 36.8253 30 36.8253C31.6882 36.8253 33.3834 36.2291 34.7381 35.0518L36.3562 33.6434L53.6906 48.7558C53.102 49.0958 52.4133 49.2893 51.6772 49.2893ZM55.7421 45.2255C55.7421 45.2875 55.7421 45.3487 55.7341 45.4031L39.2984 31.0811L55.7421 16.7349V45.2255Z" fill="#888888"/>
</svg>
