<svg width="60" height="60" viewBox="0 0 60 60" fill="none" xmlns="http://www.w3.org/2000/svg">
<mask id="mask0_867_4" style="mask-type:alpha" maskUnits="userSpaceOnUse" x="0" y="0" width="60" height="60">
<circle cx="30" cy="30" r="28" stroke="white" stroke-width="4"/>
<path d="M29.0489 12.9271C29.3483 12.0057 30.6517 12.0057 30.9511 12.9271L34.2658 23.1287C34.3996 23.5407 34.7836 23.8197 35.2168 23.8197H45.9434C46.9122 23.8197 47.3149 25.0593 46.5312 25.6287L37.8532 31.9336C37.5027 32.1883 37.3561 32.6396 37.4899 33.0517L40.8046 43.2533C41.104 44.1746 40.0495 44.9407 39.2658 44.3713L30.5878 38.0664C30.2373 37.8117 29.7627 37.8117 29.4122 38.0664L20.7342 44.3713C19.9505 44.9407 18.896 44.1746 19.1954 43.2533L22.5101 33.0517C22.6439 32.6396 22.4973 32.1883 22.1468 31.9336L13.4688 25.6287C12.6851 25.0593 13.0878 23.8197 14.0566 23.8197H24.7832C25.2164 23.8197 25.6004 23.5407 25.7342 23.1287L29.0489 12.9271Z" fill="url(#paint0_linear_867_4)"/>
</mask>
<g mask="url(#mask0_867_4)">
<rect width="60" height="60" fill="url(#paint1_linear_867_4)"/>
</g>
<defs>
<linearGradient id="paint0_linear_867_4" x1="10" y1="10" x2="50" y2="50" gradientUnits="userSpaceOnUse">
<stop offset="0.461527" stop-color="#F3FCFF"/>
<stop offset="1" stop-color="#1E5BAB"/>
</linearGradient>
<linearGradient id="paint1_linear_867_4" x1="0" y1="0" x2="60" y2="60" gradientUnits="userSpaceOnUse">
<stop offset="0.395833" stop-color="#F3FCFF"/>
<stop offset="1" stop-color="#1E5BAB"/>
</linearGradient>
</defs>
</svg>
