<svg width="440" height="360" viewBox="0 0 440 360" fill="none" xmlns="http://www.w3.org/2000/svg">
<g clip-path="url(#clip0_669_13)">
<g filter="url(#filter0_dd_669_13)">
<path d="M359.607 164.375V291.283C359.607 310.558 343.981 326.184 324.705 326.184H115.295C96.0191 326.184 80.3931 310.558 80.3931 291.283V164.375C80.3931 154.194 71.079 146.558 61.0959 148.555C52.4434 150.285 44.0058 144.743 42.1569 136.115L30.7789 83.0178C27.1893 66.2661 36.2888 49.3858 52.2559 43.1763L116.029 18.3758C134.621 11.1453 155.552 21.2623 167.378 37.3277C178.733 52.7528 195.998 67.9114 220 67.9114C244.002 67.9114 261.267 52.7528 272.622 37.3277C284.448 21.2623 305.379 11.1453 323.971 18.3757L387.744 43.1763C403.711 49.3858 412.811 66.2662 409.221 83.0179L397.843 136.115C395.994 144.743 387.557 150.285 378.904 148.555C368.921 146.558 359.607 154.194 359.607 164.375Z" fill="white"/>
</g>
<path d="M220.085 245C193.273 245 175 221.914 175 177.811C175 133.707 193.273 112 220.085 112C246.898 112 265 133.88 265 177.811C265 221.914 246.898 245 220.085 245ZM220.085 221.225C229.137 221.225 236.309 212.956 236.309 177.811C236.309 142.838 229.137 135.43 220.085 135.43C211.034 135.43 203.691 142.838 203.691 177.811C203.691 212.956 211.034 221.225 220.085 221.225Z" fill="url(#paint0_linear_669_13)"/>
</g>
<defs>
<filter id="filter0_dd_669_13" x="10" y="14" width="420" height="352.184" filterUnits="userSpaceOnUse" color-interpolation-filters="sRGB">
<feFlood flood-opacity="0" result="BackgroundImageFix"/>
<feColorMatrix in="SourceAlpha" type="matrix" values="0 0 0 0 0 0 0 0 0 0 0 0 0 0 0 0 0 0 127 0" result="hardAlpha"/>
<feOffset dy="20"/>
<feGaussianBlur stdDeviation="10"/>
<feComposite in2="hardAlpha" operator="out"/>
<feColorMatrix type="matrix" values="0 0 0 0 0 0 0 0 0 0 0 0 0 0 0 0 0 0 0.06 0"/>
<feBlend mode="normal" in2="BackgroundImageFix" result="effect1_dropShadow_669_13"/>
<feColorMatrix in="SourceAlpha" type="matrix" values="0 0 0 0 0 0 0 0 0 0 0 0 0 0 0 0 0 0 127 0" result="hardAlpha"/>
<feOffset dy="-1"/>
<feGaussianBlur stdDeviation="0.5"/>
<feComposite in2="hardAlpha" operator="out"/>
<feColorMatrix type="matrix" values="0 0 0 0 0 0 0 0 0 0 0 0 0 0 0 0 0 0 0.05 0"/>
<feBlend mode="normal" in2="effect1_dropShadow_669_13" result="effect2_dropShadow_669_13"/>
<feBlend mode="normal" in="SourceGraphic" in2="effect2_dropShadow_669_13" result="shape"/>
</filter>
<linearGradient id="paint0_linear_669_13" x1="220" y1="112" x2="220" y2="245" gradientUnits="userSpaceOnUse">
<stop stop-color="#DEDEDE"/>
<stop offset="1" stop-color="#F1F1F1"/>
</linearGradient>
<clipPath id="clip0_669_13">
<rect width="440" height="360" fill="white"/>
</clipPath>
</defs>
</svg>
