<svg width="60" height="50" viewBox="0 0 60 50" fill="none" xmlns="http://www.w3.org/2000/svg">
<path fill-rule="evenodd" clip-rule="evenodd" d="M10 2H29V16.0549C24.5 16.5524 21 20.3674 21 25C21 29.6326 24.5001 33.4476 29 33.9451V41L22 48L10 48C5.58172 48 2 44.4183 2 40V36H11C12.6569 36 14 34.6569 14 33V17C14 15.3431 12.6569 14 11 14H2V10C2 5.58172 5.58172 2 10 2ZM31 33.9451V39L46 24V17C46 15.3431 47.3431 14 49 14H56L58 12V10C58 5.58172 54.4183 2 50 2H31V16.0549C35.5 16.5524 39 20.3674 39 25C39 29.6326 35.5 33.4476 31 33.9451ZM31 18.0709C34.3923 18.5561 37 21.4735 37 25C37 28.5265 34.3923 31.4439 31 31.9291L31 18.0709ZM29 18.0709L29 31.9291C25.6077 31.4439 23 28.5265 23 25C23 21.4735 25.6077 18.5561 29 18.0709ZM11 34H2V16H11C11.5523 16 12 16.4477 12 17V33C12 33.5523 11.5523 34 11 34ZM48 22L54 16H49C48.4477 16 48 16.4477 48 17V22Z" fill="#3465FF"/>
<path d="M29 44.4142V47C29 47.5523 29.4477 48 30 48H32.5858C32.851 48 33.1054 47.8946 33.2929 47.7071L52.2929 28.7071C52.6834 28.3166 52.6834 27.6834 52.2929 27.2929L49.7071 24.7071C49.3166 24.3166 48.6834 24.3166 48.2929 24.7071L29.2929 43.7071C29.1054 43.8946 29 44.149 29 44.4142Z" fill="#3465FF"/>
<path d="M57.2929 23.7071L54.7071 26.2929C54.3166 26.6834 53.6834 26.6834 53.2929 26.2929L50.7071 23.7071C50.3166 23.3166 50.3166 22.6834 50.7071 22.2929L53.2929 19.7071C53.6834 19.3166 54.3166 19.3166 54.7071 19.7071L57.2929 22.2929C57.6834 22.6834 57.6834 23.3166 57.2929 23.7071Z" fill="#3465FF"/>
</svg>
