<svg width="60" height="50" viewBox="0 0 60 50" fill="none" xmlns="http://www.w3.org/2000/svg">
<path fill-rule="evenodd" clip-rule="evenodd" d="M10 6H50C52.2091 6 54 7.79086 54 10V16L58 16.0001V10C58 5.58172 54.4183 2 50 2H10C5.58172 2 2 5.58172 2 10V40C2 44.4183 5.58172 48 10 48H50C50.0166 48 50.0332 48 50.0498 47.9998L25 47.9999L25 44H10C7.79086 44 6 42.2091 6 40V10C6 7.79086 7.79086 6 10 6Z" fill="white"/>
<path d="M32.1716 46H31V44.8284L49 26.8284L50.1716 28L32.1716 46Z" fill="white" stroke="white" stroke-width="4" stroke-linecap="round"/>
<path d="M57.2929 23.7071L54.7071 26.2929C54.3166 26.6834 53.6834 26.6834 53.2929 26.2929L50.7071 23.7071C50.3166 23.3166 50.3166 22.6834 50.7071 22.2929L53.2929 19.7071C53.6834 19.3166 54.3166 19.3166 54.7071 19.7071L57.2929 22.2929C57.6834 22.6834 57.6834 23.3166 57.2929 23.7071Z" fill="white"/>
<path d="M30 4V38" stroke="white" stroke-width="2"/>
<circle cx="30" cy="25" r="8" stroke="white" stroke-width="2"/>
<path d="M4 15H11C12.1046 15 13 15.8954 13 17V33C13 34.1046 12.1046 35 11 35H4" stroke="white" stroke-width="2"/>
<path d="M56 15H49C47.8954 15 47 15.8954 47 17V21" stroke="white" stroke-width="2"/>
</svg>
