<svg width="60" height="60" viewBox="0 0 60 60" fill="none" xmlns="http://www.w3.org/2000/svg">
<path d="M38.7368 11.5196C38.7368 7.51602 37.1235 3.88977 34.5125 1.25141C34.2275 0.962544 33.384 0.741762 32.8471 1.65758C32.3093 2.57258 30.8308 4.87215 30.8308 4.87215C30.6511 5.15786 30.3364 5.33129 30.0001 5.33129C29.6623 5.33129 29.3491 5.15786 29.1694 4.87215C29.1694 4.87215 27.6901 2.57258 27.1532 1.65758C26.6162 0.741762 25.7726 0.962544 25.4869 1.25141C22.8766 3.88977 21.2634 7.51602 21.2634 11.5196C21.2634 17.4985 24.8567 22.6345 30.0001 24.8956C35.1435 22.6345 38.7368 17.4984 38.7368 11.5196Z" fill="url(#paint0_linear_958_112)"/>
<path d="M23.9659 29.2793C23.4058 23.6888 19.6302 18.6845 13.9443 16.8368C10.1366 15.6 6.18919 16.0133 2.8736 17.6811C2.51079 17.8633 2.03958 18.5977 2.74516 19.3907C3.44911 20.1846 5.17868 22.3019 5.17868 22.3019C5.39536 22.5611 5.46368 22.9136 5.35938 23.2338C5.25497 23.5549 4.99259 23.7997 4.66587 23.8816C4.66587 23.8816 2.02188 24.5783 0.985711 24.8062C-0.051281 25.0341 -0.101906 25.9043 0.0843049 26.2646C1.78669 29.5627 4.73641 32.2179 8.54489 33.4555C14.2307 35.3031 20.2265 33.4731 23.9659 29.2793Z" fill="url(#paint1_linear_958_112)"/>
<path d="M11.3403 42.0602C8.98694 45.2996 8.1603 49.1812 8.72209 52.8501C8.78385 53.2514 9.33534 53.9257 10.3073 53.501C11.2809 53.0756 13.8292 52.0844 13.8292 52.0844C14.1424 51.9599 14.497 52.0033 14.7715 52.2016C15.0445 52.3999 15.1961 52.7249 15.1721 53.0612C15.1721 53.0612 15.0188 55.7909 14.9144 56.8481C14.8109 57.9035 15.6231 58.2206 16.0237 58.1547C19.686 57.5552 23.123 55.5703 25.4763 52.33C28.9911 47.4942 29.1025 41.2256 26.2709 36.3744C20.7809 35.18 14.8543 37.2227 11.3403 42.0602Z" fill="url(#paint2_linear_958_112)"/>
<path d="M33.7295 36.3746C30.8976 41.2258 31.0093 47.4943 34.524 52.3303C36.8773 55.5705 40.3142 57.5554 43.9767 58.155C44.3772 58.2208 45.1895 57.9037 45.086 56.8483C44.9817 55.7912 44.8276 53.0614 44.8276 53.0614C44.8044 52.7252 44.9567 52.4001 45.2296 52.2018C45.5018 52.0036 45.8581 51.9602 46.1711 52.0847C46.1711 52.0847 48.7195 53.0758 49.6923 53.5012C50.6642 53.9258 51.2165 53.2516 51.2783 52.8504C51.8393 49.1815 51.0141 45.3 48.6601 42.0604C45.1461 37.2231 39.2195 35.1795 33.7295 36.3746Z" fill="url(#paint3_linear_958_112)"/>
<path d="M59.0155 24.8063C57.9785 24.5783 55.3346 23.8817 55.3346 23.8817C55.0071 23.7989 54.7455 23.5549 54.6411 23.2338C54.5368 22.9137 54.605 22.5612 54.8209 22.302C54.8209 22.302 56.5505 20.1846 57.256 19.3908C57.9608 18.5979 57.4896 17.8634 57.1276 17.6811C53.8111 16.0133 49.8645 15.5999 46.0551 16.8368C40.3693 18.6845 36.5945 23.689 36.0342 29.2793C39.7736 33.4731 45.7686 35.3031 51.4552 33.4554C55.2629 32.2178 58.2134 29.5627 59.9151 26.2645C60.1014 25.9043 60.0525 25.0342 59.0155 24.8063Z" fill="url(#paint4_linear_958_112)"/>
<defs>
<linearGradient id="paint0_linear_958_112" x1="39" y1="25" x2="15.3872" y2="9.61393" gradientUnits="userSpaceOnUse">
<stop stop-color="#D19A97"/>
<stop offset="1" stop-color="#DAC6C7"/>
</linearGradient>
<linearGradient id="paint1_linear_958_112" x1="24" y1="34" x2="5.23957" y2="11.6098" gradientUnits="userSpaceOnUse">
<stop stop-color="#D19A97"/>
<stop offset="1" stop-color="#DAC6C7"/>
</linearGradient>
<linearGradient id="paint2_linear_958_112" x1="28" y1="58" x2="6.00684" y2="39.5723" gradientUnits="userSpaceOnUse">
<stop stop-color="#D19A97"/>
<stop offset="1" stop-color="#DAC6C7"/>
</linearGradient>
<linearGradient id="paint3_linear_958_112" x1="51" y1="58" x2="29.0066" y2="39.5727" gradientUnits="userSpaceOnUse">
<stop stop-color="#D19A97"/>
<stop offset="1" stop-color="#DAC6C7"/>
</linearGradient>
<linearGradient id="paint4_linear_958_112" x1="60" y1="34" x2="41.2392" y2="11.61" gradientUnits="userSpaceOnUse">
<stop stop-color="#D19A97"/>
<stop offset="1" stop-color="#DAC6C7"/>
</linearGradient>
</defs>
</svg>
