<svg width="60" height="50" viewBox="0 0 60 50" fill="none" xmlns="http://www.w3.org/2000/svg">
<path d="M36.3462 15.2969C33.9631 15.2969 31.8226 15.2969 29.722 15.2969H3C2.44771 15.2969 2 15.7446 2 16.2969V23.6037C2 24.5731 2.69527 25.403 3.64974 25.5728L15.3908 27.6613C17.9453 28.1155 20.105 29.814 21.1487 32.1894C21.1487 32.1894 21.6502 33.1195 22.0059 34.1418C24.1505 40.304 29.505 45.0488 36.3462 45.0488C44.5621 45.0488 51.2221 38.3882 51.2221 30.1727C51.2221 21.9575 44.5621 15.2969 36.3462 15.2969ZM36.3462 35.9045C33.1803 35.9045 30.614 33.3382 30.614 30.1729C30.614 27.0077 33.1804 24.4402 36.3462 24.4402C39.5119 24.4402 42.0783 27.0077 42.0783 30.1729C42.0783 33.3382 39.5119 35.9045 36.3462 35.9045Z" fill="white"/>
<path d="M43.124 5C39.0678 5 17.7261 5 13.7387 5C13.3206 5 12.914 5.13103 12.5742 5.37467L4.74751 10.987C3.95769 11.5533 4.35835 12.7996 5.33025 12.7996H18.1419H31.9056H36.3835C45.7958 12.7996 53.4534 20.5403 53.4534 29.9527V29.9527C53.4534 30.3282 53.9596 30.4975 54.1642 30.1827L55.4411 28.2179C55.4592 28.1911 55.4759 28.1632 55.4936 28.1365L55.874 27.5108C57.2151 25.2765 58 22.6716 58 19.8761C58 11.6607 51.3399 5 43.124 5ZM33.8709 11.3327H27.0175L33.1053 6.22905H39.9587L33.8709 11.3327Z" fill="white"/>
</svg>
