<svg width="60" height="50" viewBox="0 0 60 50" fill="none" xmlns="http://www.w3.org/2000/svg">
<path d="M41.8187 4.15554L16.6707 4V4C16.0316 4 15.4119 4.22208 14.9185 4.62823V4.62823L3.00471 14.6195L2.72849 14.847C2.26722 15.2269 2 15.7932 2 16.3908V16.7483L2 25.0962V25.8283C2 27.1639 2.95957 28.3049 4.27406 28.5418V28.5418C9.05396 29.403 15.2466 30.6928 16.4828 30.9127C17.719 31.1326 18.7188 32.3147 19.224 33.4643L19.2689 33.5656L19.3215 33.6635C19.3215 33.6635 19.6445 34.2711 19.8621 34.8966C22.1846 41.5696 27.9607 45.5172 34.5158 45.5172C39.1656 45.5172 44 42.6207 46.8965 39.7241L54.1137 31.2976L54.1796 31.215L54.2429 31.1462L54.2794 31.098L55.5348 29.6258L55.6328 29.4862C55.665 29.4365 55.7109 29.3561 55.7109 29.3561C57.5 27 58 23.9474 58 21.2049C58 9.56042 50.2085 4.15554 41.8187 4.15554ZM45.578 35.3302C45.578 35.3302 44.7406 36.4991 44.1108 37.1672C41.2665 40.1843 38.406 41.6534 34.4875 41.6534C28.7579 41.6534 24.2735 37.6795 22.4774 32.5186C22.1795 31.6626 21.7595 30.8835 21.7595 30.8835C20.8854 28.894 19.0767 27.4716 16.9372 27.0911L7.50752 25.3925C6.55504 25.221 5.86207 24.392 5.86207 23.4242V17.6619H29.0557C30.8937 17.6619 32.7661 17.6619 34.8508 17.6619C38.1937 17.6619 41.2116 19.0143 43.4036 21.2049C45.5937 23.3964 46.9456 26.4144 46.9461 29.7573C46.9456 31.771 46.4463 33.661 45.578 35.3302ZM52.2069 27.1724C52.2069 27.1724 51.5102 28.1793 51.0111 28.767C50.9931 28.7882 50.9677 28.8179 50.9677 28.8179L50.9245 28.8685L49.7826 30.2077L48.6714 31.5108C48.7396 30.9517 48.7839 30.3343 48.7839 29.7573C48.7835 22.062 42.5465 15.8249 34.8508 15.824C32.7661 15.824 30.8937 15.824 29.0557 15.824L6.8296 15.824L16.6707 7.8611C16.6707 7.8611 38.0679 7.72132 41.8187 7.72132C48.6996 7.72132 54.2773 13.2996 54.2773 20.1801C54.2774 22.5214 53.3301 25.3013 52.2069 27.1724Z" fill="white"/>
<path d="M28.9184 13.613H36.4481L41.8949 9.82812H34.3253L28.9184 13.613Z" fill="white"/>
</svg>
