<svg width="60" height="60" viewBox="0 0 60 60" fill="none" xmlns="http://www.w3.org/2000/svg">
<g clip-path="url(#clip0_507_339)">
<path d="M58.5305 24.6104L51.9854 24.3081C51.3875 24.2811 50.8594 23.9102 50.6323 23.3585L49.2837 20.1129C49.0567 19.5588 49.1668 18.924 49.5714 18.4823L53.9857 13.6386C54.5386 13.0306 54.5184 12.0911 53.9363 11.5078L48.4947 6.06518C47.9104 5.4831 46.9709 5.4606 46.3619 6.0169L41.5205 10.4312C41.0778 10.8347 40.4417 10.9471 39.8887 10.7167L36.6433 9.37042C36.0904 9.14236 35.7217 8.61407 35.6947 8.01511L35.3913 1.47226C35.3529 0.648531 34.6741 0 33.8516 0H26.1512C25.3286 0 24.6476 0.648531 24.6095 1.47214L24.3082 8.01499C24.2812 8.61395 23.9126 9.14213 23.3596 9.3703L20.1141 10.7167C19.5589 10.9471 18.9228 10.8347 18.4823 10.4312L13.6387 6.0169C13.0296 5.46071 12.09 5.48204 11.5057 6.06518L6.06635 11.5078C5.48204 12.0911 5.46189 13.0306 6.0169 13.6386L10.4312 18.4823C10.8358 18.924 10.9437 19.5588 10.7144 20.1129L9.3703 23.3585C9.14107 23.9102 8.61512 24.2811 8.01511 24.3081L1.47214 24.6104C0.649586 24.6475 0 25.3274 0 26.1511V33.8504C0 34.673 0.649586 35.354 1.47214 35.3912L8.01511 35.6935C8.61512 35.7203 9.14107 36.0912 9.3703 36.643L10.7144 39.8885C10.9437 40.4426 10.8358 41.0775 10.4312 41.5191L6.0169 46.3606C5.45954 46.972 5.48204 47.9103 6.06413 48.4936L11.5101 53.9362C12.0922 54.5195 13.0294 54.5398 13.6408 53.9857L18.4822 49.5703C18.9227 49.1668 19.5612 49.0556 20.1139 49.2849L23.3594 50.6301C23.9124 50.8593 24.281 51.3876 24.308 51.9865L24.6092 58.5294C24.6473 59.3521 25.3283 60.0015 26.151 60.0015H33.8513C34.674 60.0015 35.3528 59.3521 35.391 58.5294L35.6944 51.9865C35.7213 51.3876 36.09 50.8593 36.6429 50.6301L39.8884 49.2849C40.4413 49.0556 41.0774 49.1668 41.5202 49.5703L46.3615 53.9857C46.9707 54.5398 47.9102 54.5195 48.4944 53.9362L53.936 48.4936C54.5181 47.9103 54.5382 46.972 53.9853 46.3606L49.571 41.5191C49.1665 41.0775 49.054 40.4426 49.2833 39.8885L50.6319 36.643C50.8589 36.0912 51.3871 35.7203 51.985 35.6935L58.5302 35.3912C59.3528 35.354 60 34.673 60 33.8504V26.1511C60.0003 25.3274 59.3531 24.6475 58.5305 24.6104ZM30.0014 39.7999C24.5914 39.7999 20.2017 35.4126 20.2017 30.0014C20.2017 24.5891 24.5914 20.2017 30.0014 20.2017C35.4114 20.2017 39.7987 24.5891 39.7987 30.0014C39.7987 35.4124 35.4114 39.7999 30.0014 39.7999Z" fill="#888888"/>
</g>
<defs>
<clipPath id="clip0_507_339">
<rect width="60" height="60" fill="white"/>
</clipPath>
</defs>
</svg>
