<svg width="60" height="60" viewBox="0 0 60 60" fill="none" xmlns="http://www.w3.org/2000/svg">
<path d="M37.7381 40H22.2619L17.5 25.1878L30 16L42.5 25.1878L37.7381 40Z" fill="black"/>
<path fill-rule="evenodd" clip-rule="evenodd" d="M30 60C46.5685 60 60 46.5685 60 30C60 13.4315 46.5685 0 30 0C13.4315 0 0 13.4315 0 30C0 46.5685 13.4315 60 30 60ZM30.002 13.9032L42.502 5.59961C43.7305 6.27447 44.8986 7.04572 45.9961 7.90318V24.6967L55.614 32.9032C54.9768 36.5549 53.5777 39.9449 51.5865 42.9032H39.502L33.002 54.232C32.0177 54.3451 31.0166 54.4032 30.002 54.4032C28.9874 54.4032 27.9863 54.3451 27.002 54.232L20.502 42.9032H8.41755C6.42632 39.9449 5.02719 36.5549 4.39001 32.9032L14.0079 24.6967V7.90318C15.1054 7.04572 16.2735 6.27447 17.502 5.59961L30.002 13.9032Z" fill="black"/>
</svg>
