<svg width="59" height="60" viewBox="0 0 59 60" fill="none" xmlns="http://www.w3.org/2000/svg">
<g clip-path="url(#clip0_548_2)">
<path d="M29.9994 24.5449V36.1631H46.1447C45.4358 39.8994 43.3082 43.0632 40.1174 45.1904L49.8537 52.745C55.5264 47.5088 58.7991 39.8178 58.7991 30.6816C58.7991 28.5543 58.6082 26.5087 58.2536 24.5452L29.9994 24.5449Z" fill="#4285F4"/>
<path d="M13.1866 35.709L10.9907 37.3899L3.2179 43.4443C8.15423 53.2351 18.2716 59.9988 29.9987 59.9988C38.0985 59.9988 44.8893 57.3261 49.853 52.7444L40.1168 45.1898C37.444 46.9898 34.0349 48.0808 29.9987 48.0808C22.1988 48.0808 15.5718 42.8173 13.1989 35.7263L13.1866 35.709Z" fill="#34A853"/>
<path d="M3.21793 16.5527C1.1726 20.5889 0 25.1435 0 29.9979C0 34.8524 1.1726 39.407 3.21793 43.4432C3.21793 43.4703 13.1999 35.6977 13.1999 35.6977C12.5999 33.8978 12.2452 31.9888 12.2452 29.9976C12.2452 28.0065 12.5999 26.0975 13.1999 24.2975L3.21793 16.5527Z" fill="#FBBC05"/>
<path d="M29.9994 11.9454C34.4176 11.9454 38.3448 13.4726 41.4811 16.4181L50.0719 7.82734C44.8628 2.9729 38.0994 0 29.9994 0C18.2722 0 8.15423 6.73632 3.2179 16.5545L13.1995 24.2999C15.5721 17.209 22.1994 11.9454 29.9994 11.9454Z" fill="#EA4335"/>
</g>
<defs>
<clipPath id="clip0_548_2">
<rect width="58.8" height="60" fill="white"/>
</clipPath>
</defs>
</svg>
