<svg width="60" height="60" viewBox="0 0 60 60" fill="none" xmlns="http://www.w3.org/2000/svg">
<path fill-rule="evenodd" clip-rule="evenodd" d="M7.8153 54.2929C7.38499 57.3051 9.7223 60 12.765 60H46.5012C49.4499 60 51.7582 57.4614 51.4787 54.526L50.431 43.526C50.1866 40.9598 48.0314 39 45.4536 39H14.3365C11.8482 39 9.73862 40.8297 9.38673 43.2929L7.8153 54.2929ZM14.3365 43C13.8388 43 13.4169 43.3659 13.3465 43.8586L11.7751 54.8586C11.689 55.461 12.1565 56 12.7651 56H46.5012C47.0909 56 47.5526 55.4923 47.4967 54.9052L46.4491 43.9052C46.4002 43.392 45.9691 43 45.4536 43H14.3365Z" fill="#888888"/>
<ellipse cx="30" cy="51" rx="10" ry="2" fill="#888888"/>
<path fill-rule="evenodd" clip-rule="evenodd" d="M30 51C30 51 48.5 32 48.5 18.5C48.5 8.28273 40.2173 0 30 0C19.7827 0 11.5 8.28273 11.5 18.5C11.5 32 30 51 30 51ZM30 33C38.0081 33 44.5 26.5081 44.5 18.5C44.5 10.4919 38.0081 4 30 4C21.9919 4 15.5 10.4919 15.5 18.5C15.5 26.5081 21.9919 33 30 33Z" fill="#888888"/>
<path d="M32.1667 21H27.8333L26.5 16.6798L30 14L33.5 16.6798L32.1667 21Z" fill="#888888"/>
<path fill-rule="evenodd" clip-rule="evenodd" d="M30 29C35.799 29 40.5 24.299 40.5 18.5C40.5 12.701 35.799 8 30 8C24.201 8 19.5 12.701 19.5 18.5C19.5 24.299 24.201 29 30 29ZM30.0008 12.8672L34.3758 9.96094C34.8058 10.1971 35.2146 10.4671 35.5987 10.7672V16.6449L38.965 19.5172C38.742 20.7953 38.2523 21.9818 37.5554 23.0172H33.3258L31.0508 26.9823C30.7063 27.0218 30.3559 27.0422 30.0008 27.0422C29.6457 27.0422 29.2953 27.0218 28.9508 26.9823L26.6758 23.0172H22.4463C21.7493 21.9818 21.2596 20.7953 21.0366 19.5172L24.4029 16.6449V10.7672C24.787 10.4671 25.1958 10.1971 25.6258 9.96094L30.0008 12.8672Z" fill="#888888"/>
</svg>
