<svg width="60" height="50" viewBox="0 0 60 50" fill="none" xmlns="http://www.w3.org/2000/svg">
<path d="M34.6667 38H25.3333C20.731 38 17 41.731 17 46.3333C17 47.2538 17.7462 48 18.6667 48H41.3333C42.2538 48 43 47.2538 43 46.3333C43 41.731 39.269 38 34.6667 38Z" fill="#3465FF"/>
<path fill-rule="evenodd" clip-rule="evenodd" d="M13.2117 9C13.0466 6.8062 14.806 5 17.006 5H42.9869C45.168 5 46.892 6.82932 46.6785 9C46.2135 13.7301 45.1603 21.6365 43 27C40.9274 32.1457 36.2418 36.4035 33.0995 38.8249C31.265 40.2385 28.7654 40.1903 26.9673 38.7307C23.9231 36.2596 19.3569 31.9869 17 27C14.5212 21.7553 13.5706 13.7701 13.2117 9ZM30.5706 12.7562C30.391 12.2034 29.609 12.2034 29.4294 12.7562L28.3386 16.1133C28.2583 16.3605 28.0279 16.5279 27.768 16.5279H24.2382C23.6569 16.5279 23.4153 17.2716 23.8855 17.6133L26.7412 19.688C26.9515 19.8408 27.0394 20.1116 26.9591 20.3589L25.8684 23.7159C25.6887 24.2687 26.3214 24.7284 26.7917 24.3867L29.6473 22.312C29.8576 22.1592 30.1424 22.1592 30.3527 22.312L33.2083 24.3867C33.6786 24.7284 34.3113 24.2687 34.1316 23.7159L33.0409 20.3589C32.9606 20.1116 33.0485 19.8408 33.2588 19.688L36.1145 17.6133C36.5847 17.2716 36.3431 16.5279 35.7618 16.5279H32.232C31.9721 16.5279 31.7417 16.3605 31.6614 16.1133L30.5706 12.7562Z" fill="#3465FF"/>
<path fill-rule="evenodd" clip-rule="evenodd" d="M12.8284 7.17157L13.5355 7.87868L16.364 5.05025L15.6569 4.34315C12.5327 1.21895 7.46734 1.21895 4.34315 4.34315C1.21895 7.46734 1.21895 12.5327 4.34315 15.6569L7.87868 19.1924L7.87884 19.1922L12.357 23.6704C13.3984 24.7118 13.3984 26.4003 12.357 27.4417C11.8363 27.9624 11.8363 28.8066 12.357 29.3273L13.1113 30.0815C13.7361 30.7064 14.7492 30.7064 15.374 30.0815C17.8734 27.5822 17.8734 23.5299 15.374 21.0306L10.7071 16.3636L10.707 16.3638L7.17157 12.8284C5.60948 11.2663 5.60948 8.73367 7.17157 7.17157C8.73367 5.60948 11.2663 5.60948 12.8284 7.17157Z" fill="#3465FF"/>
<path fill-rule="evenodd" clip-rule="evenodd" d="M47.1716 7.17157L46.4645 7.87868L43.636 5.05025L44.3431 4.34315C47.4673 1.21895 52.5327 1.21895 55.6569 4.34315C58.781 7.46734 58.781 12.5327 55.6569 15.6569L52.1213 19.1924L52.1212 19.1922L47.643 23.6704C46.6016 24.7118 46.6016 26.4003 47.643 27.4417C48.1637 27.9624 48.1637 28.8066 47.643 29.3273L46.8887 30.0815C46.2639 30.7064 45.2508 30.7064 44.626 30.0815C42.1266 27.5822 42.1266 23.5299 44.626 21.0306L49.2929 16.3636L49.293 16.3638L52.8284 12.8284C54.3905 11.2663 54.3905 8.73367 52.8284 7.17157C51.2663 5.60948 48.7337 5.60948 47.1716 7.17157Z" fill="#3465FF"/>
</svg>
