<svg width="60" height="50" viewBox="0 0 60 50" fill="none" xmlns="http://www.w3.org/2000/svg">
<path d="M25.3333 40H34.6667C38.0527 40 40.818 42.6571 40.9914 46H19.0086C19.182 42.6571 21.9473 40 25.3333 40Z" stroke="white" stroke-width="4"/>
<path fill-rule="evenodd" clip-rule="evenodd" d="M17.006 5C14.806 5 13.0466 6.8062 13.2116 9V9C13.5706 13.7701 14.5212 21.7553 17 27C19.3569 31.9869 23.9231 36.2596 26.9673 38.7307C28.7654 40.1903 31.265 40.2385 33.0995 38.8249C36.2418 36.4035 40.9274 32.1457 43 27C45.1603 21.6365 46.2135 13.7301 46.6785 9V9C46.892 6.82932 45.168 5 42.9868 5H17.006ZM19.3865 9C18.2203 9 17.2993 9.99404 17.4174 11.1543C17.4641 11.6121 17.5158 12.0851 17.5731 12.5697C18.0985 17.0142 19.0446 21.9651 20.6164 25.2908C22.1499 28.5355 24.9472 31.6148 27.5798 33.9917C28.0332 34.401 28.4734 34.7822 28.8908 35.1321C29.5823 35.712 30.5833 35.7261 31.2876 35.1617C31.72 34.8151 32.1753 34.4362 32.6422 34.0275C35.3099 31.6927 38.0062 28.692 39.2897 25.5056C40.7222 21.9489 41.6731 16.8698 42.2578 12.4392C42.3136 12.0162 42.3657 11.6024 42.4143 11.2C42.5561 10.024 41.6296 9 40.445 9H19.3865Z" fill="white"/>
<path fill-rule="evenodd" clip-rule="evenodd" d="M12.8284 7.17157L13.5355 7.87868L16.364 5.05025L15.6569 4.34315C12.5327 1.21895 7.46734 1.21895 4.34315 4.34315C1.21895 7.46734 1.21895 12.5327 4.34315 15.6569L7.87868 19.1924L7.87884 19.1922L12.357 23.6704C13.3984 24.7118 13.3984 26.4003 12.357 27.4417C11.8363 27.9624 11.8363 28.8066 12.357 29.3273L13.1113 30.0815C13.7361 30.7064 14.7492 30.7064 15.374 30.0815C17.8734 27.5822 17.8734 23.5299 15.374 21.0306L10.7071 16.3636L10.707 16.3638L7.17157 12.8284C5.60948 11.2663 5.60948 8.73367 7.17157 7.17157C8.73367 5.60948 11.2663 5.60948 12.8284 7.17157Z" fill="white"/>
<path fill-rule="evenodd" clip-rule="evenodd" d="M47.1716 7.17157L46.4645 7.87868L43.636 5.05025L44.3431 4.34315C47.4673 1.21895 52.5327 1.21895 55.6569 4.34315C58.781 7.46734 58.781 12.5327 55.6569 15.6569L52.1213 19.1924L52.1212 19.1922L47.643 23.6704C46.6016 24.7118 46.6016 26.4003 47.643 27.4417C48.1637 27.9624 48.1637 28.8066 47.643 29.3273L46.8887 30.0815C46.2639 30.7064 45.2508 30.7064 44.626 30.0815C42.1266 27.5822 42.1266 23.5299 44.626 21.0306L49.2929 16.3636L49.293 16.3638L52.8284 12.8284C54.3905 11.2663 54.3905 8.73367 52.8284 7.17157C51.2663 5.60948 48.7337 5.60948 47.1716 7.17157Z" fill="white"/>
</svg>
