<svg width="60" height="50" viewBox="0 0 60 50" fill="none" xmlns="http://www.w3.org/2000/svg">
<path d="M48 24.8192V43C48 44.6569 46.6569 46 45 46H15C13.3431 46 12 44.6569 12 43V24.8192C12 22.0987 9.51103 20.0582 6.84328 20.5917C6.67636 20.6251 6.51359 20.5182 6.47792 20.3518L4.84792 12.7451C4.53937 11.3052 5.32152 9.85421 6.69398 9.32047L15.8301 5.76756C17.3599 5.1726 19.4813 5.9438 20.8508 7.80425C22.6357 10.2289 25.6301 13 30 13C34.3699 13 37.3643 10.2289 39.1492 7.80426C40.5187 5.9438 42.6401 5.1726 44.1699 5.76756L53.306 9.32047C54.6785 9.85421 55.4606 11.3052 55.1521 12.7451L53.5221 20.3518C53.4864 20.5182 53.3236 20.6251 53.1567 20.5917C50.489 20.0582 48 22.0987 48 24.8192Z" stroke="white" stroke-width="4"/>
<circle cx="38" cy="23" r="4" fill="white"/>
</svg>
