<svg width="60" height="50" viewBox="0 0 60 50" fill="none" xmlns="http://www.w3.org/2000/svg">
<path fill-rule="evenodd" clip-rule="evenodd" d="M50 42.9993V24.8185C50 23.3601 51.3343 22.2662 52.7645 22.5522C54.0041 22.8001 55.2128 22.0062 55.4777 20.7701L57.1077 13.1634C57.6219 10.7636 56.3183 8.34532 54.0309 7.45576L44.8948 3.90285C42.2313 2.86702 39.2328 4.31637 37.5385 6.6179C35.9118 8.82768 33.4385 10.9993 30 10.9993C26.5615 10.9993 24.0882 8.82768 22.4615 6.6179C20.7672 4.31637 17.7687 2.86702 15.1052 3.90285L5.96909 7.45577C3.68166 8.34532 2.37806 10.7636 2.89231 13.1634L4.52232 20.7701C4.78719 22.0062 5.99595 22.8001 7.23551 22.5522C8.66567 22.2662 10 23.3601 10 24.8185V42.9993C10 45.7607 12.2386 47.9993 15 47.9993H45C47.7614 47.9993 50 45.7607 50 42.9993ZM38 26.9993C40.2091 26.9993 42 25.2084 42 22.9993C42 20.7902 40.2091 18.9993 38 18.9993C35.7909 18.9993 34 20.7902 34 22.9993C34 25.2084 35.7909 26.9993 38 26.9993Z" fill="#3465FF"/>
</svg>
