<svg width="60" height="60" viewBox="0 0 60 60" fill="none" xmlns="http://www.w3.org/2000/svg">
<path d="M6.45598 36.4569C10.0215 36.4569 12.912 33.5664 12.912 30.0009C12.912 26.4354 10.0215 23.5449 6.45598 23.5449C2.89044 23.5449 0 26.4354 0 30.0009C0 33.5664 2.89044 36.4569 6.45598 36.4569Z" fill="#888888"/>
<path d="M30 36.4569C33.5656 36.4569 36.456 33.5664 36.456 30.0009C36.456 26.4354 33.5656 23.5449 30 23.5449C26.4345 23.5449 23.544 26.4354 23.544 30.0009C23.544 33.5664 26.4345 36.4569 30 36.4569Z" fill="#888888"/>
<path d="M53.5441 36.4569C57.1096 36.4569 60 33.5664 60 30.0009C60 26.4354 57.1096 23.5449 53.5441 23.5449C49.9785 23.5449 47.0881 26.4354 47.0881 30.0009C47.0881 33.5664 49.9785 36.4569 53.5441 36.4569Z" fill="#888888"/>
</svg>
