<svg width="60" height="60" viewBox="0 0 60 60" fill="none" xmlns="http://www.w3.org/2000/svg">
<path d="M53.8574 18.1371C53.894 18.6661 53.894 19.195 53.894 19.7289C53.894 35.9945 41.5113 54.7538 18.869 54.7538V54.7441C12.1804 54.7538 5.63071 52.8379 0 49.2255C0.972578 49.3425 1.95003 49.401 2.92992 49.4034C8.47288 49.4083 13.8574 47.5485 18.2182 44.1237C12.9506 44.0238 8.33151 40.5893 6.71786 35.5753C8.56307 35.9312 10.4644 35.858 12.2754 35.3632C6.5326 34.203 2.40098 29.1573 2.40098 23.2974C2.40098 23.2438 2.40098 23.1926 2.40098 23.1414C4.11213 24.0945 6.02803 24.6234 7.98781 24.6819C2.57892 21.0671 0.911639 13.8715 4.17794 8.24561C10.4278 15.936 19.649 20.6112 29.5478 21.1061C28.5558 16.8306 29.911 12.3504 33.1091 9.34494C38.067 4.68437 45.8647 4.92325 50.5253 9.87876C53.2821 9.33519 55.9244 8.32361 58.3425 6.89034C57.4235 9.73982 55.5003 12.1603 52.9311 13.6984C55.3711 13.4108 57.755 12.7575 60 11.7605C58.3474 14.2371 56.2657 16.3943 53.8574 18.1371Z" fill="#888888"/>
</svg>
