<svg width="60" height="60" viewBox="0 0 60 60" fill="none" xmlns="http://www.w3.org/2000/svg">
<g clip-path="url(#clip0_736_33)">
<path d="M53.2482 30.4817C53.8569 30.8263 54.6346 30.6402 54.9878 30.0364L59.5758 22.1923C59.8154 21.7826 59.703 21.2536 59.3066 20.9926V20.9926C59.0082 20.7962 58.8528 20.6908 58.5402 20.5182C58.1827 20.3207 58.0293 20.2268 57.6642 20.0437C57.3564 19.8893 57.21 19.8243 56.8978 19.6787C56.5396 19.5117 55.9489 19.2408 55.9489 19.2408C55.9489 19.2408 55.2857 18.9632 54.854 18.8028C54.2625 18.5831 53.9248 18.4757 53.3212 18.2919C52.9241 18.171 52.6975 18.117 52.2993 17.9999C52.0138 17.916 51.8575 17.8554 51.5693 17.7809C51.3149 17.7152 51.169 17.692 50.9124 17.635L50.2555 17.489C49.9989 17.432 49.8563 17.3941 49.5985 17.343C49.278 17.2795 49.0884 17.2513 48.7806 17.2056L48.7226 17.197C48.268 17.1294 48.0108 17.108 47.5548 17.051C47.3267 17.0225 47.1992 17.0036 46.9708 16.978C46.672 16.9445 46.5937 16.9294 46.2044 16.905C45.8151 16.8807 45.0292 16.832 45 16.832H42.5183C41.7032 16.832 41.7161 16.8577 41.2044 16.905C40.9474 16.9288 40.8038 16.9477 40.5474 16.978C40.3192 17.0051 40.1916 17.0225 39.9635 17.051C39.7355 17.0795 39.6071 17.0918 39.3796 17.124C39.0362 17.1726 38.8441 17.2037 38.5037 17.27C38.015 17.3651 37.7464 17.444 37.2628 17.562C36.9202 17.6455 36.7259 17.6839 36.3869 17.7809C35.9535 17.9049 35.7148 17.9898 35.292 18.1459C34.8003 18.3274 34.5307 18.4456 34.0511 18.6568C33.6193 18.847 33.3732 18.9469 32.9562 19.1678C32.5156 19.4012 32.2793 19.5528 31.8613 19.8247C31.178 20.2694 30.7968 20.5296 30.1825 21.0656C29.6661 21.5162 29.3996 21.7966 28.9416 22.3065L28.9099 22.3418C28.4415 22.8632 28.1662 23.1697 27.7737 23.7663C27.4512 24.2567 27.2971 24.5507 27.0438 25.0802C26.74 25.7153 26.5866 26.0839 26.3869 26.759C26.2868 27.0971 26.2433 27.2905 26.1679 27.635C26.0626 28.1156 26.0082 28.3873 25.9489 28.8758C25.9076 29.2166 25.8944 29.409 25.8759 29.7517C25.8422 30.378 25.8357 30.7318 25.8759 31.3576C25.8952 31.6576 25.9066 31.8263 25.9489 32.124C25.9918 32.4257 26.03 32.5927 26.0949 32.8904C26.17 33.2349 26.2085 33.4299 26.3139 33.7663C26.4705 34.2664 26.5817 34.5429 26.8248 35.0072C26.979 35.3017 27.0778 35.4609 27.2628 35.7371C27.5452 36.1588 27.7239 36.3839 28.0657 36.759C28.2776 36.9916 28.4086 37.1154 28.6325 37.3268L28.6496 37.343C28.8992 37.5787 29.0398 37.7109 29.3066 37.9269C29.6079 38.1709 29.7865 38.2964 30.1095 38.5109C30.6942 38.8991 31.0458 39.0836 31.6788 39.3868C32.1396 39.6075 32.4072 39.7122 32.8832 39.8977C33.446 40.1171 33.716 40.2091 34.3431 40.4087L35.9489 40.9196C36.576 41.1192 36.8827 41.1882 37.4818 41.3576C38.5066 41.6474 39.0941 41.766 40.1095 42.0875L40.1241 42.0921C40.5447 42.2253 40.7852 42.3014 41.2044 42.4525C41.4335 42.535 41.5611 42.5837 41.7883 42.6714C42.0747 42.782 42.2431 42.8272 42.5183 42.9634C42.7242 43.0654 42.8406 43.124 43.0292 43.2554C43.2119 43.3826 43.4672 43.6204 43.4672 43.6204C43.4672 43.6204 43.7259 43.9103 43.8321 44.1313C43.9102 44.2938 43.9478 44.3915 43.9781 44.5693C44.0117 44.766 43.9781 45.0802 43.9781 45.0802C43.9781 45.0802 43.9594 45.4189 43.9051 45.6277L43.9021 45.6393C43.8619 45.7937 43.8378 45.8866 43.7591 46.0291C43.6709 46.1889 43.5971 46.2659 43.4672 46.3941C43.2985 46.5604 43.1768 46.6311 42.9775 46.7467L42.9562 46.759C42.7134 46.9 42.5653 46.9613 42.2993 47.051C41.9814 47.1582 41.7936 47.1997 41.4599 47.2335C41.1621 47.2636 40.9927 47.2393 40.6934 47.2335C40.3511 47.2268 40.159 47.222 39.8175 47.197C39.5318 47.176 39.3717 47.1609 39.0876 47.124C38.7437 47.0793 38.5516 47.0466 38.2117 46.978C37.7508 46.8851 37.4984 46.8058 37.0438 46.686C36.7295 46.6033 36.5514 46.563 36.2409 46.4671C35.836 46.342 35.6175 46.2463 35.219 46.1021C34.6762 45.9057 34.3668 45.8085 33.8321 45.5912C33.312 45.3797 33.0247 45.2497 32.5183 45.0072C32.0123 44.7649 31.7344 44.617 31.2409 44.3503C30.8816 44.1561 30.6807 44.0459 30.3285 43.8393C29.9531 43.6192 29.7426 43.4953 29.3796 43.2554C28.9704 42.985 28.748 42.8224 28.3577 42.5255V42.5255C27.6986 42.0241 26.7399 42.186 26.3396 42.9109L22.4212 50.0064C22.0137 50.7443 22.1874 51.6847 22.8832 52.1605V52.1605C23.3272 52.4641 23.5891 52.6151 24.0511 52.8904C24.446 53.1257 24.3604 53.1323 25.073 53.4744L26.8978 54.3503C27.6104 54.6923 27.783 54.7181 28.3577 54.9342C29.0917 55.2103 29.5067 55.3577 30.2555 55.5912C30.962 55.8114 31.363 55.9199 32.0803 56.1021C32.1942 56.1311 32.2582 56.1466 32.3723 56.1751C32.4863 56.2036 32.5507 56.2176 32.6642 56.2481C32.7644 56.275 32.8192 56.2952 32.9197 56.3211C33.047 56.3538 33.1196 56.3669 33.2482 56.3941C33.3904 56.4242 33.6131 56.4671 33.6131 56.4671L34.0511 56.5401C34.2221 56.5686 34.3177 56.5864 34.4891 56.6131C34.6882 56.6441 34.8002 56.6592 35 56.686C35.2278 56.7167 35.3557 56.732 35.5839 56.759C35.8403 56.7894 35.9842 56.8049 36.2409 56.832C36.5258 56.8622 36.6853 56.8813 36.9708 56.905C37.568 56.9546 38.5037 56.978 38.5037 56.978C38.5037 56.978 40.1511 57.0325 41.2044 56.978C41.6039 56.9573 41.828 56.9434 42.2263 56.905C42.6838 56.861 42.9383 56.818 43.3942 56.759C43.822 56.7037 44.0636 56.6841 44.4891 56.6131C45.035 56.5219 45.3379 56.451 45.8759 56.3211C46.3061 56.2172 46.5469 56.156 46.9708 56.0291C47.4026 55.8998 47.6404 55.8133 48.0657 55.6642C48.3805 55.5537 48.5579 55.4938 48.8686 55.3722C49.2729 55.2139 49.4996 55.1231 49.8905 54.9342C50.2695 54.7511 50.477 54.6373 50.8394 54.4233C51.071 54.2865 51.1973 54.2039 51.4234 54.0583C51.6826 53.8913 51.83 53.8004 52.0803 53.6204C52.3441 53.4306 52.4874 53.3173 52.7372 53.1094C53.0285 52.867 53.1847 52.7194 53.4573 52.4618L53.4672 52.4525C53.7894 52.1479 53.9798 51.9848 54.2701 51.6496C54.4828 51.4038 54.5857 51.2524 54.781 50.9926C55.0758 50.6007 55.265 50.395 55.511 49.9707C55.6708 49.695 55.7373 49.5278 55.8759 49.2408C56.0534 48.8733 56.1592 48.6696 56.3139 48.2919C56.4744 47.8997 56.561 47.677 56.6788 47.27C56.7846 46.9047 56.822 46.6938 56.8978 46.3211C57.0015 45.8114 57.0586 45.5241 57.1168 45.0072C57.195 44.3126 57.2012 43.9178 57.1898 43.2189C57.1816 42.7193 57.1754 42.4377 57.1168 41.9415C57.0932 41.7413 57.0768 41.6294 57.0438 41.4306C56.9962 41.1438 56.9643 40.9836 56.8978 40.7006C56.8029 40.2966 56.7431 40.0704 56.6058 39.6787C56.5043 39.389 56.4434 39.2272 56.3139 38.9488C56.1632 38.625 56.0627 38.4503 55.8759 38.1459C55.6195 37.7279 55.4645 37.4969 55.146 37.124C54.858 36.7868 54.6624 36.6287 54.3431 36.3211C53.9799 35.9712 53.789 35.759 53.3942 35.4452C53.0413 35.1647 52.8232 35.0338 52.4453 34.7882C52.2198 34.6417 52.096 34.5545 51.8613 34.4233C51.6388 34.2988 51.5078 34.2404 51.2774 34.1313C51.033 34.0157 50.8895 33.9543 50.6487 33.8514L50.6204 33.8393C50.197 33.6583 49.9549 33.5679 49.5256 33.4014C49.0714 33.2253 48.8161 33.1281 48.3577 32.9634C47.5942 32.6891 47.1595 32.5539 46.3869 32.3065C45.9318 32.1608 45.6781 32.0741 45.219 31.9415C44.9067 31.8514 44.7283 31.8127 44.4161 31.7225C44.0531 31.6178 43.8472 31.552 43.4953 31.4396L43.4672 31.4306C43.0378 31.2934 42.7972 31.2157 42.3723 31.0656C41.913 30.9034 41.652 30.8199 41.2044 30.6277C40.7827 30.4465 40.5195 30.3834 40.146 30.1167C39.8424 29.8999 39.6653 29.7662 39.4526 29.4598C39.2816 29.2136 39.1847 29.0598 39.1241 28.7663C39.0722 28.5151 39.0803 28.3622 39.1241 28.1094C39.1625 27.8874 39.1952 27.7579 39.3066 27.562C39.3968 27.4033 39.4662 27.3227 39.5985 27.197C39.7935 27.0117 39.9373 26.9424 40.1825 26.832C40.504 26.6873 40.7093 26.6629 41.0584 26.6131C41.2835 26.5809 41.4138 26.5757 41.6423 26.574C41.8993 26.5721 42.0427 26.595 42.2993 26.6131C42.7296 26.6433 42.9692 26.6848 43.3942 26.759C43.7962 26.8293 44.0182 26.887 44.4161 26.978C44.9889 27.1091 45.312 27.1778 45.8759 27.343C46.395 27.495 46.6788 27.6038 47.1898 27.7809C47.5902 27.9197 47.8152 27.9962 48.2117 28.1459C48.6425 28.3086 48.8812 28.4075 49.3066 28.5839C49.7076 28.7502 49.9319 28.8451 50.3285 29.0218C50.7013 29.1879 50.9094 29.2832 51.2774 29.4598C51.6797 29.6528 51.9034 29.765 52.2993 29.9707C52.6727 30.1648 52.8819 30.2743 53.2482 30.4817V30.4817Z" fill="#3465FF"/>
<path fill-rule="evenodd" clip-rule="evenodd" d="M0.522952 11.8454C0.253961 10.5996 1.20335 9.42336 2.4779 9.42336H12.0727C13.063 9.42336 13.9041 10.1479 14.0507 11.1272L17.5547 34.5328L32.156 4.13406C32.489 3.44089 33.1898 3 33.9588 3H42.4895C44.0032 3 44.9682 4.61639 44.2501 5.94888L22.1724 46.9124C21.8234 47.5598 21.1473 47.9635 20.4118 47.9635H9.93544C8.99352 47.9635 8.17927 47.3063 7.98048 46.3856L0.522952 11.8454ZM37.0438 15.5182C36.47 15.6451 35.5839 15.8832 35.5839 15.8832L34.4891 16.2482L33.5402 16.6131L32.5912 17.0511L32.0073 17.3431L31.3504 17.708L30.8394 18L30.1095 18.4745L29.6715 18.8029L29.2336 19.1679L28.7956 19.5328L28.2117 20.0438L27.7737 20.4818L27.3358 20.9927L27.0438 21.3577L26.6788 21.7956C26.6788 21.7956 26.364 22.2381 26.1679 22.5255C26.1229 22.5914 26.0827 22.6496 26.0449 22.7041C25.9366 22.8604 25.8487 22.9872 25.7299 23.1825C25.5774 23.4332 25.4979 23.5778 25.365 23.8394C25.2096 24.1452 25.1345 24.3234 25.0017 24.6383L25 24.6423C24.8458 25.0082 24.7687 25.2174 24.635 25.5912C24.6261 25.6162 24.6175 25.6404 24.6091 25.6638C24.5032 25.9596 24.4363 26.1464 24.3431 26.4672C24.2446 26.8057 24.198 26.9983 24.1241 27.3431C24.0936 27.4852 24.0778 27.5652 24.0511 27.708C24.036 27.7887 24.0163 27.8774 23.9945 27.9753C23.9777 28.0509 23.9597 28.1319 23.9416 28.219C23.9275 28.2869 23.9142 28.3451 23.9017 28.3999C23.8748 28.5173 23.8516 28.619 23.8321 28.7664C23.8036 28.9826 23.7373 29.8117 23.7546 30.1533C23.7719 30.4949 23.7809 30.6875 23.7956 31.0292C23.8061 31.2717 23.8133 31.4076 23.8321 31.6496C23.8543 31.9352 23.8682 32.0955 23.9051 32.3796C23.9498 32.7234 23.9779 32.9165 24.0511 33.2555C24.0967 33.4668 24.1303 33.5913 24.1828 33.7865C24.1874 33.8036 24.1922 33.8212 24.1971 33.8394C24.251 34.0398 24.2823 34.1519 24.3431 34.3504C24.3512 34.377 24.359 34.4025 24.3665 34.427C24.4315 34.6402 24.4745 34.7811 24.562 35.0073C24.6633 35.2691 24.729 35.4129 24.854 35.6642C24.979 35.9154 25.062 36.0558 25.1996 36.2884L25.219 36.3212C25.3559 36.5527 25.4341 36.6818 25.5839 36.9051C25.7205 37.1088 25.8002 37.2211 25.9489 37.4161C26.0384 37.5334 26.0986 37.607 26.1793 37.7057C26.1985 37.7291 26.2188 37.7539 26.2409 37.781C26.3085 37.864 26.3631 37.9284 26.4171 37.9921C26.4754 38.061 26.5331 38.1291 26.6058 38.219C26.6633 38.2899 26.7518 38.4015 26.7518 38.4015L39.3066 15.1168C39.3066 15.1168 37.9201 15.3246 37.0438 15.5182Z" fill="#5D84FF"/>
</g>
<defs>
<clipPath id="clip0_736_33">
<rect width="60" height="60" fill="white"/>
</clipPath>
</defs>
</svg>
