<svg width="60" height="50" viewBox="0 0 60 50" fill="none" xmlns="http://www.w3.org/2000/svg">
<path fill-rule="evenodd" clip-rule="evenodd" d="M23.7 30.2C26.1853 30.2 28.2 28.1853 28.2 25.7C28.2 24.8354 27.9562 24.0278 27.5336 23.3422C28.3174 23.1193 29.1447 23 30 23C34.9706 23 39 27.0294 39 32C39 36.9706 34.9706 41 30 41C25.0294 41 21 36.9706 21 32C21 31.1447 21.1193 30.3174 21.3422 29.5336C22.0278 29.9562 22.8354 30.2 23.7 30.2ZM32 32C32 33.1046 31.1046 34 30 34C28.8954 34 28 33.1046 28 32C28 30.8954 28.8954 30 30 30C31.1046 30 32 30.8954 32 32Z" fill="#3465FF"/>
<path d="M54.3878 32.6898C44.6616 41.8082 37.2541 45.9782 30.1186 45.9999C22.9849 46.0216 15.4851 41.8981 5.57262 32.6429C5.18813 32.2839 5.18571 31.6765 5.56454 31.3151C15.3202 22.0094 22.7552 17.9395 29.8844 18.0007C37.0397 18.0621 44.5262 22.2847 54.3805 31.3442C54.7736 31.7056 54.7759 32.3259 54.3878 32.6898Z" stroke="#3465FF" stroke-width="4"/>
<path d="M50 20H48C47.4477 20 47 19.5523 47 19V3C47 2.44772 47.4477 2 48 2H50C50.5523 2 51 2.44772 51 3V19C51 19.5523 50.5523 20 50 20Z" fill="#3465FF"/>
<path d="M40 10V12C40 12.5523 40.4477 13 41 13H57C57.5523 13 58 12.5523 58 12V10C58 9.44772 57.5523 9 57 9H41C40.4477 9 40 9.44772 40 10Z" fill="#3465FF"/>
</svg>
