<svg width="60" height="50" viewBox="0 0 60 50" fill="none" xmlns="http://www.w3.org/2000/svg">
<g clip-path="url(#clip0_464_151)">
<path fill-rule="evenodd" clip-rule="evenodd" d="M23 30C25.7614 30 28 27.7614 28 25C28 24.0394 27.7291 23.142 27.2595 22.3802C28.1304 22.1326 29.0497 22 30 22C35.5228 22 40 26.4772 40 32C40 37.5228 35.5228 42 30 42C24.4772 42 20 37.5228 20 32C20 31.0497 20.1326 30.1304 20.3802 29.2595C21.142 29.7291 22.0394 30 23 30ZM33 32C33 33.6569 31.6569 35 30 35C28.3431 35 27 33.6569 27 32C27 30.3431 28.3431 29 30 29C31.6569 29 33 30.3431 33 32Z" fill="#888888"/>
<path d="M54.3878 32.6898C44.6616 41.8082 37.2541 45.9782 30.1186 45.9999C22.9849 46.0216 15.4851 41.8981 5.57262 32.6429C5.18813 32.2839 5.18571 31.6765 5.56454 31.3151C15.3202 22.0094 22.7552 17.9395 29.8844 18.0007C37.0397 18.0621 44.5262 22.2847 54.3805 31.3442C54.7736 31.7056 54.7759 32.3259 54.3878 32.6898Z" stroke="#888888" stroke-width="4"/>
<path d="M57.5809 8.13899L47.3239 18.396C46.9334 18.7865 46.3002 18.7865 45.9097 18.396L38.9298 11.4161C38.5392 11.0256 38.5392 10.3924 38.9298 10.0019L40.344 8.58766C40.7345 8.19714 41.3677 8.19714 41.7582 8.58766L46.5851 13.4146L54.7289 5.27073C55.121 4.87865 55.7572 4.88044 56.1471 5.27472L57.5849 6.72877C57.9717 7.11992 57.9699 7.75002 57.5809 8.13899Z" fill="#888888"/>
</g>
<defs>
<clipPath id="clip0_464_151">
<rect width="60" height="50" fill="white"/>
</clipPath>
</defs>
</svg>
