<svg width="60" height="50" viewBox="0 0 60 50" fill="none" xmlns="http://www.w3.org/2000/svg">
<g clip-path="url(#clip0_464_12)">
<path fill-rule="evenodd" clip-rule="evenodd" d="M4.20774 34.1048C24.1696 52.7428 36.1752 52.5057 55.7557 34.1489C56.993 32.9889 56.9826 31.0197 55.7341 29.8718C35.9125 11.6488 23.8525 11.1066 4.18412 29.8679C2.97221 31.024 2.98355 32.9617 4.20774 34.1048ZM28 25C28 27.7614 25.7615 30 23 30C22.0394 30 21.1421 29.7291 20.3802 29.2595C20.1326 30.1304 20 31.0497 20 32C20 37.5228 24.4772 42 30 42C35.5229 42 40 37.5228 40 32C40 26.4772 35.5229 22 30 22C29.0498 22 28.1304 22.1326 27.2596 22.3802C27.7291 23.142 28 24.0394 28 25ZM30 35C31.6569 35 33 33.6569 33 32C33 30.3431 31.6569 29 30 29C28.3432 29 27 30.3431 27 32C27 33.6569 28.3432 35 30 35Z" fill="white"/>
<path d="M57.5809 8.13899L47.3239 18.396C46.9334 18.7865 46.3002 18.7865 45.9097 18.396L38.9298 11.4161C38.5392 11.0256 38.5392 10.3924 38.9298 10.0019L40.344 8.58766C40.7345 8.19714 41.3677 8.19714 41.7582 8.58766L46.5851 13.4146L54.7289 5.27073C55.121 4.87865 55.7572 4.88044 56.1471 5.27472L57.5849 6.72877C57.9717 7.11992 57.9699 7.75002 57.5809 8.13899Z" fill="white"/>
</g>
<defs>
<clipPath id="clip0_464_12">
<rect width="60" height="50" fill="white"/>
</clipPath>
</defs>
</svg>
